<svg width="21" height="20" viewBox="0 0 21 20" fill="none" xmlns="http://www.w3.org/2000/svg" style="margin-top: 5px;">
<path d="M10.666 0L10.99 0.00500011C13.6127 0.0900211 16.097 1.20254 17.9068 3.10261C19.7167 5.00268 20.7072 7.53801 20.6647 10.1618C20.6222 12.7855 19.5501 15.2874 17.6796 17.1279C15.8091 18.9683 13.2901 19.9998 10.666 19.9998C8.04191 19.9998 5.52296 18.9683 3.65247 17.1279C1.78197 15.2874 0.709846 12.7855 0.66733 10.1618C0.624814 7.53801 1.61532 5.00268 3.4252 3.10261C5.23508 1.20254 7.71929 0.0900211 10.342 0.00500011L10.666 0ZM11.279 5.21C11.078 5.05459 10.8254 4.98151 10.5725 5.0056C10.3196 5.02969 10.0853 5.14916 9.91727 5.33972C9.74923 5.53029 9.66004 5.77767 9.66779 6.03162C9.67554 6.28557 9.77967 6.52704 9.95902 6.707L12.25 9H6.66602L6.54902 9.007C6.29592 9.0371 6.06387 9.16271 5.90028 9.35817C5.73669 9.55362 5.65391 9.80416 5.66885 10.0586C5.68378 10.313 5.79531 10.5522 5.98065 10.7272C6.16598 10.9021 6.41114 10.9997 6.66602 11H12.25L9.95902 13.293L9.87602 13.387C9.72061 13.588 9.64752 13.8406 9.67162 14.0935C9.69571 14.3464 9.81517 14.5807 10.0057 14.7488C10.1963 14.9168 10.4437 15.006 10.6976 14.9982C10.9516 14.9905 11.1931 14.8863 11.373 14.707L15.373 10.707L15.446 10.625L15.51 10.536L15.572 10.423L15.616 10.313L15.646 10.201L15.663 10.075L15.666 10L15.659 9.882L15.63 9.734L15.595 9.629L15.541 9.516L15.47 9.405C15.4405 9.36534 15.4081 9.3279 15.373 9.293L11.373 5.293L11.279 5.21Z" fill="#2862AF"/>
</svg>
