<svg width="24" height="24" viewBox="0 0 24 24" fill="none" xmlns="http://www.w3.org/2000/svg">
<g clip-path="url(#clip0_5169_3625)">
<path d="M13 5H21" stroke="white" stroke-opacity="0.7" stroke-width="1.5" stroke-linecap="round" stroke-linejoin="round"/>
<path d="M13 9H18" stroke="white" stroke-opacity="0.7" stroke-width="1.5" stroke-linecap="round" stroke-linejoin="round"/>
<path d="M13 15H21" stroke="white" stroke-opacity="0.7" stroke-width="1.5" stroke-linecap="round" stroke-linejoin="round"/>
<path d="M13 19H18" stroke="white" stroke-opacity="0.7" stroke-width="1.5" stroke-linecap="round" stroke-linejoin="round"/>
<path d="M3 5C3 4.73478 3.10536 4.48043 3.29289 4.29289C3.48043 4.10536 3.73478 4 4 4H8C8.26522 4 8.51957 4.10536 8.70711 4.29289C8.89464 4.48043 9 4.73478 9 5V9C9 9.26522 8.89464 9.51957 8.70711 9.70711C8.51957 9.89464 8.26522 10 8 10H4C3.73478 10 3.48043 9.89464 3.29289 9.70711C3.10536 9.51957 3 9.26522 3 9V5Z" stroke="white" stroke-opacity="0.7" stroke-width="1.5" stroke-linecap="round" stroke-linejoin="round"/>
<path d="M3 15C3 14.7348 3.10536 14.4804 3.29289 14.2929C3.48043 14.1054 3.73478 14 4 14H8C8.26522 14 8.51957 14.1054 8.70711 14.2929C8.89464 14.4804 9 14.7348 9 15V19C9 19.2652 8.89464 19.5196 8.70711 19.7071C8.51957 19.8946 8.26522 20 8 20H4C3.73478 20 3.48043 19.8946 3.29289 19.7071C3.10536 19.5196 3 19.2652 3 19V15Z" stroke="white" stroke-opacity="0.7" stroke-width="1.5" stroke-linecap="round" stroke-linejoin="round"/>
</g>
<defs>
<clipPath id="clip0_5169_3625">
<rect width="24" height="24" fill="white"/>
</clipPath>
</defs>
</svg>
