<svg width="25" height="24" viewBox="0 0 25 24" fill="none" xmlns="http://www.w3.org/2000/svg">
<rect x="0.332031" width="24" height="24" rx="8" fill="#17A209"/>
<g clip-path="url(#clip0_5016_29051)">
<path d="M9.33203 10.5C9.33203 10.1022 9.49007 9.72064 9.77137 9.43934C10.0527 9.15804 10.4342 9 10.832 9H16.832C17.2299 9 17.6114 9.15804 17.8927 9.43934C18.174 9.72064 18.332 10.1022 18.332 10.5V16.5C18.332 16.8978 18.174 17.2794 17.8927 17.5607C17.6114 17.842 17.2299 18 16.832 18H10.832C10.4342 18 10.0527 17.842 9.77137 17.5607C9.49007 17.2794 9.33203 16.8978 9.33203 16.5V10.5Z" stroke="white" stroke-width="1.125" stroke-linecap="round" stroke-linejoin="round"/>
<path d="M15.332 9V7.5C15.332 7.10218 15.174 6.72064 14.8927 6.43934C14.6114 6.15804 14.2299 6 13.832 6H7.83203C7.43421 6 7.05268 6.15804 6.77137 6.43934C6.49007 6.72064 6.33203 7.10218 6.33203 7.5V13.5C6.33203 13.8978 6.49007 14.2794 6.77137 14.5607C7.05268 14.842 7.43421 15 7.83203 15H9.33203" stroke="white" stroke-width="1.125" stroke-linecap="round" stroke-linejoin="round"/>
</g>
<defs>
<clipPath id="clip0_5016_29051">
<rect width="18" height="18" fill="white" transform="translate(3.33203 3)"/>
</clipPath>
</defs>
</svg>
