<svg width="20" height="20" viewBox="0 0 20 20" fill="none" xmlns="http://www.w3.org/2000/svg">
<g clip-path="url(#clip0_4935_2004)">
<path fill-rule="evenodd" clip-rule="evenodd" d="M13.7526 3.26953C12.9617 3.26953 12.2032 3.58371 11.644 4.14295L10.8214 4.96552C10.8178 4.96897 10.8142 4.97247 10.8107 4.97603C10.8071 4.97958 10.8036 4.98317 10.8002 4.98678L2.894 12.8929C2.77679 13.0102 2.71094 13.1691 2.71094 13.3349V16.6682C2.71094 17.0134 2.99076 17.2932 3.33594 17.2932H6.66927C6.83503 17.2932 6.994 17.2274 7.11121 17.1102L15.8612 8.36016C16.4205 7.80092 16.7346 7.04244 16.7346 6.25155C16.7346 5.46067 16.4205 4.70218 15.8612 4.14295C15.302 3.58371 14.5435 3.26953 13.7526 3.26953ZM11.2527 6.30198L3.96094 13.5938V16.0432H6.41039L13.7022 8.75143L11.2527 6.30198ZM14.5861 7.86754L14.9773 7.47628C15.3021 7.15146 15.4846 6.71092 15.4846 6.25155C15.4846 5.79219 15.3021 5.35165 14.9773 5.02683C14.6525 4.70201 14.212 4.51953 13.7526 4.51953C13.2932 4.51953 12.8527 4.70201 12.5279 5.02683L12.1366 5.41809L14.5861 7.86754Z" fill="black"/>
</g>
<defs>
<clipPath id="clip0_4935_2004">
<rect width="20" height="20" fill="white"/>
</clipPath>
</defs>
</svg>
