<svg width="40" height="38" viewBox="0 0 40 38" fill="none" xmlns="http://www.w3.org/2000/svg">
<g clip-path="url(#clip0_2152_32091)">
<rect x="18" y="4.25" width="16.5" height="19.5" rx="0.75" fill="#C4C4C4"/>
<rect x="18" y="4.25" width="8.25" height="4.5" fill="#21A366"/>
<rect x="26.25" y="4.25" width="8.25" height="4.5" fill="#33C481"/>
<rect x="18" y="8.75" width="8.25" height="5.25" fill="#107C41"/>
<rect x="26.25" y="8.75" width="8.25" height="5.25" fill="#21A366"/>
<rect x="18" y="14" width="8.25" height="4.5" fill="#185C37"/>
<rect x="26.25" y="14" width="8.25" height="4.5" fill="#107C41"/>
<rect x="18" y="18.5" width="8.25" height="5.25" fill="#185C37"/>
<rect x="26.25" y="18.5" width="8.25" height="5.25" fill="#185C37"/>
</g>
<g filter="url(#filter0_ddd_2152_32091)">
<rect x="13.5" y="8" width="11.25" height="11.25" rx="0.75" fill="#17864D"/>
</g>
<path d="M16.2206 16.5H17.6246L19.2236 14.2672L20.8129 16.5H22.2754L19.9646 13.2435L22.2754 10.026H20.8519L19.2626 12.249L17.6929 10.026H16.2206L18.5216 13.2825L16.2206 16.5Z" fill="white"/>
<defs>
<filter id="filter0_ddd_2152_32091" x="-1.5" y="0.5" width="41.25" height="41.25" filterUnits="userSpaceOnUse" color-interpolation-filters="sRGB">
<feFlood flood-opacity="0" result="BackgroundImageFix"/>
<feColorMatrix in="SourceAlpha" type="matrix" values="0 0 0 0 0 0 0 0 0 0 0 0 0 0 0 0 0 0 127 0" result="hardAlpha"/>
<feOffset/>
<feGaussianBlur stdDeviation="0.375"/>
<feColorMatrix type="matrix" values="0 0 0 0 0 0 0 0 0 0 0 0 0 0 0 0 0 0 0.04 0"/>
<feBlend mode="normal" in2="BackgroundImageFix" result="effect1_dropShadow_2152_32091"/>
<feColorMatrix in="SourceAlpha" type="matrix" values="0 0 0 0 0 0 0 0 0 0 0 0 0 0 0 0 0 0 127 0" result="hardAlpha"/>
<feOffset dy="1.5"/>
<feGaussianBlur stdDeviation="2.25"/>
<feColorMatrix type="matrix" values="0 0 0 0 0 0 0 0 0 0 0 0 0 0 0 0 0 0 0.04 0"/>
<feBlend mode="normal" in2="effect1_dropShadow_2152_32091" result="effect2_dropShadow_2152_32091"/>
<feColorMatrix in="SourceAlpha" type="matrix" values="0 0 0 0 0 0 0 0 0 0 0 0 0 0 0 0 0 0 127 0" result="hardAlpha"/>
<feOffset dy="7.5"/>
<feGaussianBlur stdDeviation="7.5"/>
<feColorMatrix type="matrix" values="0 0 0 0 0 0 0 0 0 0 0 0 0 0 0 0 0 0 0.04 0"/>
<feBlend mode="normal" in2="effect2_dropShadow_2152_32091" result="effect3_dropShadow_2152_32091"/>
<feBlend mode="normal" in="SourceGraphic" in2="effect3_dropShadow_2152_32091" result="shape"/>
</filter>
<clipPath id="clip0_2152_32091">
<rect x="18" y="4.25" width="16.5" height="19.5" rx="0.75" fill="white"/>
</clipPath>
</defs>
</svg>
