<svg width="20" height="20" viewBox="0 0 20 20" fill="none" xmlns="http://www.w3.org/2000/svg">
<g clip-path="url(#clip0_6619_180155)">
<path d="M8.33398 9.9987C8.33398 10.4407 8.50958 10.8646 8.82214 11.1772C9.1347 11.4898 9.55862 11.6654 10.0007 11.6654C10.4427 11.6654 10.8666 11.4898 11.1792 11.1772C11.4917 10.8646 11.6673 10.4407 11.6673 9.9987C11.6673 9.55667 11.4917 9.13275 11.1792 8.82019C10.8666 8.50763 10.4427 8.33203 10.0007 8.33203C9.55862 8.33203 9.1347 8.50763 8.82214 8.82019C8.50958 9.13275 8.33398 9.55667 8.33398 9.9987Z" stroke="black" stroke-width="1.25" stroke-linecap="round" stroke-linejoin="round"/>
<path d="M17.5 10C15.5 13.3333 13 15 10 15C7 15 4.5 13.3333 2.5 10C4.5 6.66667 7 5 10 5C13 5 15.5 6.66667 17.5 10Z" stroke="black" stroke-width="1.25" stroke-linecap="round" stroke-linejoin="round"/>
</g>
<defs>
<clipPath id="clip0_6619_180155">
<rect width="20" height="20" fill="white"/>
</clipPath>
</defs>
</svg>
