<svg width="26" height="30" viewBox="0 0 26 30" fill="none" xmlns="http://www.w3.org/2000/svg">
<path d="M23.7352 6.21484L15.2494 1.31484C13.8637 0.514844 12.1494 0.514844 10.7494 1.31484L2.27801 6.21484C0.892299 7.01484 0.0351562 8.50056 0.0351562 10.1148V19.8863C0.0351562 21.4863 0.892299 22.972 2.27801 23.7863L10.7637 28.6863C12.1494 29.4863 13.8637 29.4863 15.2637 28.6863L23.7494 23.7863C25.1352 22.9863 25.9923 21.5006 25.9923 19.8863V10.1148C25.978 8.50056 25.1209 7.02913 23.7352 6.21484ZM11.9352 8.92913C11.9352 8.34342 12.4209 7.8577 13.0066 7.8577C13.5923 7.8577 14.078 8.34342 14.078 8.92913V16.4291C14.078 17.0148 13.5923 17.5006 13.0066 17.5006C12.4209 17.5006 11.9352 17.0148 11.9352 16.4291V8.92913ZM14.3209 21.6148C14.2494 21.7863 14.1494 21.9434 14.0209 22.0863C13.7494 22.3577 13.3923 22.5006 13.0066 22.5006C12.8209 22.5006 12.6352 22.4577 12.4637 22.3863C12.278 22.3148 12.1352 22.2148 11.9923 22.0863C11.8637 21.9434 11.7637 21.7863 11.678 21.6148C11.6066 21.4434 11.578 21.2577 11.578 21.072C11.578 20.7006 11.7209 20.3291 11.9923 20.0577C12.1352 19.9291 12.278 19.8291 12.4637 19.7577C12.9923 19.5291 13.6209 19.6577 14.0209 20.0577C14.1494 20.2006 14.2494 20.3434 14.3209 20.5291C14.3923 20.7006 14.4352 20.8863 14.4352 21.072C14.4352 21.2577 14.3923 21.4434 14.3209 21.6148Z" fill="white"/>
</svg>
