<svg width="20" height="20" viewBox="0 0 20 20" fill="none" xmlns="http://www.w3.org/2000/svg">
<g clip-path="url(#clip0_3153_942)">
<path d="M15.8333 5.83301H4.16667C3.24619 5.83301 2.5 6.5792 2.5 7.49967V14.9997C2.5 15.9201 3.24619 16.6663 4.16667 16.6663H15.8333C16.7538 16.6663 17.5 15.9201 17.5 14.9997V7.49967C17.5 6.5792 16.7538 5.83301 15.8333 5.83301Z" stroke="black" stroke-width="1.25" stroke-linecap="round" stroke-linejoin="round"/>
<path d="M6.66602 5.83333V4.16667C6.66602 3.72464 6.84161 3.30072 7.15417 2.98816C7.46673 2.67559 7.89065 2.5 8.33268 2.5H11.666C12.108 2.5 12.532 2.67559 12.8445 2.98816C13.1571 3.30072 13.3327 3.72464 13.3327 4.16667V5.83333" stroke="black" stroke-width="1.25" stroke-linecap="round" stroke-linejoin="round"/>
<path d="M10 10V10.0083" stroke="black" stroke-width="1.25" stroke-linecap="round" stroke-linejoin="round"/>
<path d="M2.5 10.833C4.82632 12.0052 7.39502 12.6159 10 12.6159C12.605 12.6159 15.1737 12.0052 17.5 10.833" stroke="black" stroke-width="1.25" stroke-linecap="round" stroke-linejoin="round"/>
</g>
<defs>
<clipPath id="clip0_3153_942">
<rect width="20" height="20" fill="white"/>
</clipPath>
</defs>
</svg>
