<svg width="20" height="20" viewBox="0 0 20 20" fill="none" xmlns="http://www.w3.org/2000/svg">
<g clip-path="url(#clip0_2115_32754)">
<path d="M10 11.667C11.3807 11.667 12.5 10.5477 12.5 9.16699C12.5 7.78628 11.3807 6.66699 10 6.66699C8.61929 6.66699 7.5 7.78628 7.5 9.16699C7.5 10.5477 8.61929 11.667 10 11.667Z" stroke="currentColor" stroke-width="1.25" stroke-linecap="round" stroke-linejoin="round"/>
<path d="M14.7148 13.8806L11.179 17.4164C10.8665 17.7286 10.4428 17.904 10.0011 17.904C9.55933 17.904 9.13567 17.7286 8.82315 17.4164L5.28649 13.8806C4.35417 12.9482 3.71927 11.7603 3.46206 10.4671C3.20485 9.17394 3.3369 7.83352 3.84149 6.61536C4.34608 5.39721 5.20057 4.35604 6.29689 3.62351C7.39321 2.89098 8.68213 2.5 10.0007 2.5C11.3192 2.5 12.6081 2.89098 13.7044 3.62351C14.8007 4.35604 15.6552 5.39721 16.1598 6.61536C16.6644 7.83352 16.7965 9.17394 16.5392 10.4671C16.282 11.7603 15.6471 12.9482 14.7148 13.8806Z" stroke="currentColor" stroke-width="1.25" stroke-linecap="round" stroke-linejoin="round"/>
</g>
<defs>
<clipPath id="clip0_2115_32754">
<rect width="20" height="20" fill="white"/>
</clipPath>
</defs>
</svg>
