<svg width="16" height="20" viewBox="0 0 16 20" fill="none" xmlns="http://www.w3.org/2000/svg">
<path d="M2.3077 19.4999C1.80898 19.4999 1.38302 19.3233 1.02982 18.9701C0.676608 18.6169 0.5 18.1909 0.5 17.6922V8.30765C0.5 7.80893 0.676608 7.38297 1.02982 7.02977C1.38302 6.67656 1.80898 6.49995 2.3077 6.49995H3.5V4.49995C3.5 3.25125 3.93782 2.18908 4.81345 1.31345C5.6891 0.437817 6.75127 0 7.99997 0C9.24867 0 10.3108 0.437817 11.1865 1.31345C12.0621 2.18908 12.5 3.25125 12.5 4.49995V6.49995H13.6922C14.191 6.49995 14.6169 6.67656 14.9701 7.02977C15.3233 7.38297 15.5 7.80893 15.5 8.30765V17.6922C15.5 18.1909 15.3233 18.6169 14.9701 18.9701C14.6169 19.3233 14.191 19.4999 13.6922 19.4999H2.3077ZM2.3077 17.9999H13.6922C13.782 17.9999 13.8557 17.9711 13.9134 17.9134C13.9711 17.8557 14 17.7819 14 17.6922V8.30765C14 8.2179 13.9711 8.14417 13.9134 8.08647C13.8557 8.02877 13.782 7.99993 13.6922 7.99993H2.3077C2.21795 7.99993 2.14423 8.02877 2.08652 8.08647C2.02882 8.14417 1.99997 8.2179 1.99997 8.30765V17.6922C1.99997 17.7819 2.02882 17.8557 2.08652 17.9134C2.14423 17.9711 2.21795 17.9999 2.3077 17.9999ZM7.99997 14.7499C8.48587 14.7499 8.89901 14.5797 9.23938 14.2393C9.57976 13.899 9.74995 13.4858 9.74995 12.9999C9.74995 12.514 9.57976 12.1009 9.23938 11.7605C8.89901 11.4201 8.48587 11.25 7.99997 11.25C7.51407 11.25 7.10094 11.4201 6.76058 11.7605C6.42019 12.1009 6.25 12.514 6.25 12.9999C6.25 13.4858 6.42019 13.899 6.76058 14.2393C7.10094 14.5797 7.51407 14.7499 7.99997 14.7499ZM4.99997 6.49995H11V4.49995C11 3.66662 10.7083 2.95828 10.125 2.37495C9.54164 1.79162 8.83331 1.49995 7.99997 1.49995C7.16664 1.49995 6.45831 1.79162 5.87497 2.37495C5.29164 2.95828 4.99997 3.66662 4.99997 4.49995V6.49995Z" fill="#2A81D0"/>
</svg>
