<svg width="24" height="24" viewBox="0 0 24 24" fill="none" xmlns="http://www.w3.org/2000/svg">
<g clip-path="url(#clip0_2232_38229)">
<path d="M12 17C12.5523 17 13 16.5523 13 16C13 15.4477 12.5523 15 12 15C11.4477 15 11 15.4477 11 16C11 16.5523 11.4477 17 12 17Z" stroke="currentColor" stroke-opacity="0.6" stroke-width="1.5" stroke-linecap="round" stroke-linejoin="round"/>
<path fill-rule="evenodd" clip-rule="evenodd" d="M9.7019 4.7019C10.3114 4.09241 11.138 3.75 12 3.75C12.862 3.75 13.6886 4.09241 14.2981 4.7019C14.9076 5.3114 15.25 6.13805 15.25 7V10.25H8.75V7C8.75 6.13805 9.09241 5.3114 9.7019 4.7019ZM7.25 10.25V7C7.25 5.74022 7.75044 4.53204 8.64124 3.64124C9.53204 2.75044 10.7402 2.25 12 2.25C13.2598 2.25 14.468 2.75044 15.3588 3.64124C16.2496 4.53204 16.75 5.74022 16.75 7V10.25H17C18.5188 10.25 19.75 11.4812 19.75 13V19C19.75 20.5188 18.5188 21.75 17 21.75H7C5.48122 21.75 4.25 20.5188 4.25 19V13C4.25 11.4812 5.48122 10.25 7 10.25H7.25ZM16 11.75H8H7C6.30964 11.75 5.75 12.3096 5.75 13V19C5.75 19.6904 6.30964 20.25 7 20.25H17C17.6904 20.25 18.25 19.6904 18.25 19V13C18.25 12.3096 17.6904 11.75 17 11.75H16Z" fill="currentColor" fill-opacity="0.6"/>
</g>
<defs>
<clipPath id="clip0_2232_38229">
<rect width="24" height="24" fill="white"/>
</clipPath>
</defs>
</svg>
