<svg width="181" height="32" viewBox="0 0 181 32" fill="none" xmlns="http://www.w3.org/2000/svg">
<g clip-path="url(#clip0_9829_55963)">
<path d="M5.13465 27.2422C5.09872 26.9858 4.96416 26.7534 4.75958 26.5946C4.555 26.4358 4.29654 26.363 4.03916 26.3918C3.54907 26.3918 2.82835 26.7233 2.82835 28.1071C2.82835 29.0008 3.17429 29.7936 4.03916 29.7936C4.31034 29.8021 4.57458 29.707 4.7781 29.5276C4.98162 29.3482 5.10912 29.0979 5.13465 28.8278H6.15808C6.10339 29.3465 5.85145 29.8242 5.45436 30.1623C5.05728 30.5003 4.54544 30.6728 4.02474 30.6441C2.71303 30.6441 1.77609 29.7648 1.77609 28.0639C1.73063 27.7405 1.75522 27.4112 1.84821 27.0982C1.9412 26.7851 2.10041 26.4958 2.31505 26.2497C2.52968 26.0036 2.79472 25.8066 3.0922 25.6719C3.38967 25.5373 3.71263 25.4682 4.03916 25.4693C4.2949 25.4455 4.55281 25.4726 4.79802 25.549C5.04323 25.6255 5.27089 25.7496 5.46786 25.9145C5.66484 26.0793 5.82725 26.2815 5.94571 26.5094C6.06417 26.7372 6.13635 26.9863 6.15808 27.2422H5.13465Z" fill="white"/>
<path d="M9.7046 25.4975C10.0374 25.4844 10.3692 25.5439 10.6766 25.6721C10.9841 25.8002 11.26 25.9938 11.485 26.2394C11.71 26.485 11.8788 26.7767 11.9796 27.0942C12.0804 27.4117 12.1107 27.7473 12.0686 28.0777C12.113 28.4092 12.0844 28.7465 11.9846 29.0657C11.8849 29.385 11.7164 29.6786 11.4912 29.9258C11.2659 30.1731 10.9892 30.368 10.6806 30.497C10.3719 30.626 10.0388 30.6858 9.7046 30.6723C9.37038 30.6858 9.03726 30.626 8.72863 30.497C8.41999 30.368 8.14332 30.1731 7.91805 29.9258C7.69277 29.6786 7.52434 29.385 7.42459 29.0657C7.32484 28.7465 7.29619 28.4092 7.34064 28.0777C7.29848 27.7473 7.32885 27.4117 7.42964 27.0942C7.53043 26.7767 7.69921 26.485 7.92423 26.2394C8.14925 25.9938 8.42511 25.8002 8.73258 25.6721C9.04006 25.5439 9.37176 25.4844 9.7046 25.4975ZM9.7046 29.8219C10.2524 29.8219 11.0451 29.4759 11.0451 28.0921C11.0451 26.7083 10.2524 26.3912 9.7046 26.3912C9.15686 26.3912 8.36406 26.7228 8.36406 28.0921C8.36406 29.4615 9.14244 29.8074 9.7046 29.8074V29.8219ZM10.9154 25.1516H10.0938L9.64695 24.5894L9.21451 25.1516H8.49379L9.28659 24.1426H10.0938L10.9154 25.1516Z" fill="white"/>
<path d="M16.509 25.6289H17.4603V30.5442H16.4369L14.4189 27.0415V30.5442H13.4531V25.6289H14.5342L16.4802 29.0595L16.509 25.6289Z" fill="white"/>
<path d="M21.3632 27.9044H23.4244V30.5422H22.747L22.6316 29.9368C22.4577 30.1762 22.2271 30.3688 21.9604 30.4971C21.6937 30.6254 21.3993 30.6855 21.1037 30.6719C20.7807 30.6702 20.4616 30.6002 20.1676 30.4664C19.8735 30.3327 19.611 30.1384 19.3973 29.8961C19.1836 29.6538 19.0235 29.3691 18.9276 29.0606C18.8317 28.7522 18.802 28.4269 18.8406 28.1062C18.8057 27.7721 18.8424 27.4344 18.9482 27.1156C19.0541 26.7968 19.2266 26.5043 19.4544 26.2574C19.6822 26.0106 19.9599 25.8151 20.2692 25.684C20.5784 25.5529 20.9121 25.4892 21.2479 25.4971C21.7528 25.4392 22.2606 25.5797 22.664 25.889C23.0673 26.1982 23.3348 26.6521 23.41 27.1548H22.3722C22.3108 26.9201 22.1722 26.7128 21.9787 26.5664C21.7852 26.42 21.5481 26.3429 21.3055 26.3476C20.5704 26.3476 19.8641 26.8521 19.8641 28.1062C19.8641 29.3602 20.6136 29.8071 21.3055 29.8071C21.6029 29.8052 21.8892 29.694 22.1098 29.4946C22.3305 29.2953 22.47 29.0217 22.5019 28.726H21.3488L21.3632 27.9044Z" fill="white"/>
<path d="M29.6094 30.5442H28.586V26.4938H27.1445V25.6289H31.1517V26.4938H29.7103L29.6094 30.5442Z" fill="white"/>
<path d="M34.5966 30.5442H33.5732V28.6992L31.8867 25.6289H33.1552L34.1642 27.7622L35.1444 25.6289H36.3119L34.5966 28.6992V30.5442Z" fill="white"/>
<path d="M44.0078 30.9045L43.4312 30.3568C43.0439 30.5728 42.6062 30.6822 42.1628 30.6739C41.8297 30.6852 41.4982 30.6238 41.1914 30.4939C40.8845 30.364 40.6097 30.1687 40.386 29.9217C40.1623 29.6747 39.9952 29.3819 39.8963 29.0637C39.7974 28.7455 39.769 28.4096 39.8132 28.0793C39.7765 27.7469 39.8102 27.4105 39.9122 27.0921C40.0143 26.7736 40.1823 26.4803 40.4054 26.2312C40.6285 25.9821 40.9016 25.7828 41.2069 25.6464C41.5122 25.51 41.8428 25.4395 42.1772 25.4395C42.5116 25.4395 42.8422 25.51 43.1475 25.6464C43.4528 25.7828 43.7259 25.9821 43.949 26.2312C44.1721 26.4803 44.3401 26.7736 44.4421 27.0921C44.5442 27.4105 44.5779 27.7469 44.5412 28.0793C44.5778 28.708 44.3943 29.3298 44.0222 29.8378L44.5556 30.3568L44.0078 30.9045ZM42.7682 28.6559L43.2727 29.146C43.4389 28.8157 43.5183 28.4487 43.5033 28.0793C43.5033 26.7099 42.7249 26.3784 42.1628 26.3784C41.6006 26.3784 40.8366 26.7099 40.8366 28.0793C40.8366 29.4487 41.615 29.809 42.1628 29.809C42.358 29.8129 42.5511 29.7683 42.7249 29.6793L42.2348 29.218L42.7682 28.6559Z" fill="white"/>
<path d="M49.9038 28.8289C49.9038 30.1262 49.1254 30.674 47.8858 30.674C47.5995 30.6882 47.3134 30.6431 47.0455 30.5414C46.7776 30.4397 46.5336 30.2836 46.329 30.083C46.0562 29.7458 45.9176 29.3197 45.9398 28.8866V25.6289H46.9921V28.8289C46.9727 28.9534 46.9813 29.0807 47.0171 29.2015C47.053 29.3223 47.1152 29.4336 47.1994 29.5274C47.2835 29.6212 47.3875 29.6951 47.5037 29.7439C47.6199 29.7926 47.7455 29.8149 47.8713 29.8091C48.5777 29.8091 48.8659 29.4631 48.8659 28.8721V25.6289H49.9038V28.8289Z" fill="white"/>
<path d="M52.2256 30.5442H51.1445L52.9031 25.6289H54.0851L55.8148 30.5442H54.777L54.4598 29.5352H52.5716L52.2256 30.5442ZM52.8454 28.6848H54.0995L53.4941 26.7388L52.8454 28.6848Z" fill="white"/>
<path d="M54.7746 24.6201C54.6596 24.7223 54.5393 24.8185 54.4143 24.9084C54.3317 24.9789 54.2758 25.0755 54.2557 25.1822H53.8665C53.8582 25.1152 53.8582 25.0474 53.8665 24.9804C53.8954 24.8889 53.9447 24.8051 54.0107 24.7354C54.0832 24.6719 54.1422 24.5946 54.1843 24.508C54.2264 24.4213 54.2507 24.3271 54.2557 24.2309C54.2642 24.1847 54.2591 24.137 54.2413 24.0935C54.2234 24.0501 54.1934 24.0127 54.1548 23.9858C54.081 23.9277 53.9893 23.8971 53.8954 23.8994C53.8177 23.9013 53.7424 23.9264 53.6791 23.9714C53.6136 24.0334 53.5684 24.1138 53.5494 24.2021C53.611 24.1874 53.6752 24.1874 53.7368 24.2021C53.7613 24.1894 53.7885 24.1828 53.8161 24.1828C53.8437 24.1828 53.8708 24.1894 53.8954 24.2021C53.9219 24.228 53.9421 24.2597 53.9546 24.2947C53.9671 24.3296 53.9715 24.367 53.9674 24.4039C53.9567 24.4732 53.9267 24.5381 53.881 24.5912C53.8505 24.6248 53.8121 24.6503 53.7693 24.6654C53.7266 24.6805 53.6807 24.6847 53.6359 24.6777C53.5892 24.6768 53.5433 24.6661 53.5011 24.6462C53.4588 24.6264 53.4213 24.5978 53.3909 24.5624C53.3254 24.4862 53.2896 24.389 53.29 24.2885C53.2848 24.1935 53.3017 24.0985 53.3392 24.0111C53.3767 23.9236 53.4338 23.8459 53.5062 23.784C53.6872 23.6453 53.9131 23.5786 54.1404 23.5967C54.345 23.5829 54.5482 23.6388 54.717 23.7552C54.7857 23.8031 54.8406 23.8684 54.876 23.9443C54.9115 24.0202 54.9262 24.1042 54.9188 24.1876C54.9293 24.2659 54.9217 24.3456 54.8967 24.4205C54.8718 24.4955 54.83 24.5637 54.7746 24.6201Z" fill="white"/>
<path d="M60.716 25.6289H61.6674V30.5442H60.6439L58.6259 27.0415V30.5442H57.6602V25.6289H58.7412L60.7016 29.0595L60.716 25.6289Z" fill="white"/>
<path d="M66.8125 29.6505H69.2629V30.5442H65.7891V25.6289H66.8125V29.6505Z" fill="white"/>
<path d="M72.8962 30.5442H71.8728V28.6992L70.1719 25.6289H71.3827L72.4061 27.7622L73.3719 25.6289H74.5394L72.8962 28.6992V30.5442Z" fill="white"/>
<path d="M73.0669 25.1399H72.375L73.0236 24.1309H74.0759L73.0669 25.1399Z" fill="white"/>
<path d="M81.902 25.6289H82.8678V30.5442H81.8444L79.8264 27.0415V30.5442H78.875V25.6289H79.9561L81.9164 29.0595L81.902 25.6289Z" fill="white"/>
<path d="M88.7057 25.7588H88.4607V24.9805H89.2823V25.5282C89.3072 25.7547 89.261 25.9833 89.1499 26.1823C89.0388 26.3812 88.8684 26.5406 88.6625 26.6381C88.8861 27.0849 88.995 27.5802 88.9796 28.0796C89.0051 28.4065 88.9627 28.7352 88.8551 29.0449C88.7476 29.3547 88.5771 29.6389 88.3544 29.8796C88.1317 30.1203 87.8617 30.3124 87.5612 30.4438C87.2607 30.5752 86.9364 30.643 86.6084 30.643C86.2805 30.643 85.9561 30.5752 85.6557 30.4438C85.3552 30.3124 85.0852 30.1203 84.8625 29.8796C84.6398 29.6389 84.4693 29.3547 84.3617 29.0449C84.2541 28.7352 84.2118 28.4065 84.2373 28.0796C84.1948 27.7479 84.2255 27.411 84.3271 27.0924C84.4288 26.7738 84.5988 26.4814 84.8255 26.2355C85.0521 25.9896 85.3298 25.7964 85.639 25.6692C85.9483 25.542 86.2816 25.4841 86.6156 25.4994C86.9473 25.4921 87.2768 25.5551 87.5824 25.6843C87.888 25.8135 88.1628 26.0059 88.3886 26.2489C88.4803 26.2029 88.558 26.1331 88.6138 26.047C88.6695 25.9608 88.7013 25.8614 88.7057 25.7588ZM86.6156 29.8093C87.1634 29.8093 87.9562 29.4634 87.9562 28.0796C87.9562 26.6958 87.1634 26.3787 86.6156 26.3787C86.0679 26.3787 85.2751 26.7102 85.2751 28.0796C85.2751 29.4489 86.0535 29.8093 86.6156 29.8093Z" fill="white"/>
<path d="M87.9309 31.9984H86.9219V31.1191H87.9309V31.9984Z" fill="white"/>
<path d="M97.8345 30.5437H96.6813L96.3354 30.1256C96.1512 30.3188 95.9262 30.4682 95.6767 30.563C95.4273 30.6577 95.1598 30.6955 94.8939 30.6734C94.6963 30.6873 94.498 30.6603 94.3113 30.5941C94.1246 30.5278 93.9535 30.4239 93.8088 30.2886C93.6641 30.1534 93.5488 29.9897 93.4701 29.8079C93.3914 29.6261 93.3511 29.43 93.3516 29.232C93.3516 28.7707 93.4957 28.3094 94.3029 27.7905H94.4038C94.14 27.5062 93.9821 27.1397 93.957 26.7527C93.9639 26.5908 94.004 26.4321 94.0748 26.2864C94.1456 26.1407 94.2456 26.0111 94.3687 25.9056C94.4917 25.8002 94.635 25.7212 94.7899 25.6735C94.9447 25.6258 95.1077 25.6104 95.2687 25.6284C95.423 25.6205 95.5773 25.6442 95.7222 25.6979C95.8671 25.7516 95.9995 25.8343 96.1114 25.9408C96.2234 26.0473 96.3124 26.1755 96.3732 26.3176C96.434 26.4596 96.4653 26.6126 96.4651 26.7671C96.4427 27.0148 96.3566 27.2525 96.2151 27.4571C96.0737 27.6617 95.8817 27.8262 95.6579 27.9347L96.3498 28.7995C96.5086 28.5593 96.5983 28.2801 96.6092 27.9923H97.4597C97.4206 28.5182 97.2248 29.0203 96.8975 29.4338L97.8345 30.5437ZM94.9516 28.3959C94.548 28.6986 94.375 28.8284 94.375 29.2175C94.3766 29.3085 94.3969 29.3981 94.4347 29.4808C94.4724 29.5636 94.5268 29.6377 94.5944 29.6985C94.662 29.7593 94.7414 29.8056 94.8276 29.8345C94.9139 29.8633 95.0051 29.8741 95.0957 29.8662C95.3807 29.8459 95.6502 29.729 95.8597 29.5347L94.9516 28.3959ZM95.2831 26.3635C95.2314 26.3615 95.1799 26.3701 95.1318 26.389C95.0837 26.4078 95.0399 26.4364 95.0034 26.473C94.9668 26.5095 94.9382 26.5532 94.9194 26.6014C94.9006 26.6495 94.8919 26.701 94.8939 26.7527C94.8939 26.9256 95.0236 27.113 95.2543 27.3725C95.5137 27.1995 95.7011 27.0121 95.7011 26.7527C95.7039 26.697 95.6943 26.6414 95.6729 26.59C95.6515 26.5385 95.6189 26.4924 95.5775 26.4552C95.5361 26.4179 95.4869 26.3903 95.4335 26.3744C95.38 26.3586 95.3237 26.3548 95.2687 26.3635H95.2831Z" fill="white"/>
<path d="M102.733 30.5442H101.695V25.6289H102.733V27.6325L104.607 25.6289H105.933L103.93 27.6469L106.048 30.5298H104.737L103.209 28.3676L102.733 28.8721V30.5442Z" fill="white"/>
<path d="M108.182 28.3532V30.5442H107.145V25.6289H108.182V27.4884H110.114V25.6289H111.137V30.5442H110.114V28.3532H108.182Z" fill="white"/>
<path d="M113.443 30.5442H112.434L114.192 25.6289H115.316L117.061 30.5442H115.936L115.619 29.5352H113.789L113.443 30.5442ZM114.062 28.6848H115.316L114.711 26.7388L114.062 28.6848Z" fill="white"/>
<path d="M119.251 30.5442H118.199V25.6289H119.223L119.251 30.5442Z" fill="white"/>
<path d="M125.409 30.5442H124.371V26.4938H122.93V25.6289H126.937V26.4938H125.409V30.5442Z" fill="white"/>
<path d="M129.141 28.3532V30.5442H128.117V25.6289H129.141V27.4884H131.058V25.6289H132.081V30.5442H131.058V28.3532H129.141Z" fill="white"/>
<path d="M134.401 30.5442H133.32L135.079 25.6289H136.261L137.991 30.5442H136.938L136.621 29.5352H134.747L134.401 30.5442ZM135.021 28.6848H136.275L135.67 26.7388L135.021 28.6848Z" fill="white"/>
<path d="M136.563 25.1379H135.871L136.52 24.1289H137.572L136.563 25.1379Z" fill="white"/>
<path d="M143.021 27.243C142.985 26.9892 142.853 26.7592 142.652 26.6007C142.45 26.4423 142.195 26.3677 141.94 26.3925C141.436 26.3925 140.715 26.724 140.715 28.1078C140.715 29.0015 141.061 29.7943 141.94 29.7943C142.205 29.8032 142.464 29.7116 142.665 29.5378C142.865 29.3641 142.992 29.1211 143.021 28.8574H144.045C143.99 29.376 143.738 29.8538 143.341 30.1918C142.944 30.5299 142.432 30.7024 141.911 30.6736C140.6 30.6736 139.663 29.7943 139.663 28.0934C139.617 27.7701 139.642 27.4407 139.735 27.1277C139.828 26.8147 139.987 26.5253 140.202 26.2793C140.416 26.0332 140.681 25.8361 140.979 25.7015C141.276 25.5668 141.599 25.4977 141.926 25.4988C142.438 25.4506 142.948 25.6069 143.345 25.9338C143.742 26.2606 143.994 26.7313 144.045 27.243H143.021Z" fill="white"/>
<path d="M150.055 30.5442H149.031V26.4938H147.59V25.6289H151.583V26.4938H150.141L150.055 30.5442Z" fill="white"/>
<path d="M153.456 30.5442H152.375L154.134 25.6289H155.316L157.045 30.5442H155.935L155.618 29.5352H153.802L153.456 30.5442ZM154.076 28.6848H155.33L154.725 26.7388L154.076 28.6848Z" fill="white"/>
<path d="M154.035 24.1289H155.087L155.736 25.1379H155.044L154.035 24.1289Z" fill="white"/>
<path d="M159.887 30.5442H158.863V25.6289H159.887V30.5442Z" fill="white"/>
<path d="M164.713 29.0315C164.713 29.3054 164.857 29.8387 165.751 29.8387C166.241 29.8387 166.789 29.709 166.789 29.1901C166.789 28.6711 166.414 28.7 165.895 28.5847L165.362 28.4693C164.569 28.2819 163.805 28.0946 163.805 27.0279C163.805 26.4801 164.094 25.5865 165.694 25.5865C165.925 25.5542 166.161 25.5704 166.386 25.6343C166.611 25.6981 166.821 25.8081 167.001 25.9572C167.181 26.1063 167.329 26.2914 167.434 26.5005C167.539 26.7096 167.599 26.9383 167.611 27.172H166.63C166.63 26.9558 166.515 26.4369 165.607 26.4369C165.232 26.4369 164.757 26.581 164.757 27.0279C164.757 27.4747 165.074 27.4892 165.276 27.5324L166.472 27.8351C167.149 27.9937 167.769 28.2675 167.769 29.1612C167.769 30.6027 166.328 30.7612 165.823 30.7612C164.036 30.7612 163.719 29.7378 163.719 29.118L164.713 29.0315Z" fill="white"/>
<path d="M169.862 30.5442H168.781L170.54 25.6289H171.722L173.452 30.5442H172.342L172.024 29.5352H170.208L169.862 30.5442ZM170.482 28.6848H171.736L171.131 26.7388L170.482 28.6848Z" fill="white"/>
<path d="M172.414 24.6195C172.414 24.7059 172.169 24.8069 172.068 24.9078C171.985 24.9783 171.929 25.0749 171.909 25.1816H171.535C171.511 25.1163 171.511 25.0451 171.535 24.9798C171.564 24.885 171.618 24.8001 171.693 24.7348C171.763 24.671 171.819 24.593 171.856 24.5059C171.893 24.4189 171.911 24.3249 171.909 24.2303C171.916 24.1855 171.912 24.1396 171.897 24.0968C171.882 24.0541 171.856 24.0157 171.823 23.9852C171.75 23.9247 171.658 23.8939 171.563 23.8987C171.485 23.8987 171.41 23.924 171.347 23.9708C171.31 23.9976 171.279 24.0321 171.257 24.072C171.235 24.1118 171.221 24.1559 171.217 24.2014C171.279 24.1856 171.343 24.1856 171.405 24.2014C171.429 24.1888 171.457 24.1822 171.484 24.1822C171.512 24.1822 171.539 24.1888 171.563 24.2014C171.578 24.2332 171.585 24.2676 171.585 24.3023C171.585 24.3371 171.578 24.3715 171.563 24.4032C171.554 24.4759 171.518 24.5424 171.462 24.5906C171.462 24.5906 171.376 24.6771 171.232 24.6771C171.134 24.6727 171.041 24.6315 170.972 24.5618C170.913 24.482 170.878 24.387 170.871 24.2879C170.868 24.1917 170.887 24.096 170.927 24.0084C170.967 23.9209 171.027 23.8438 171.102 23.7834C171.281 23.6408 171.509 23.5736 171.736 23.596C171.937 23.5796 172.136 23.6359 172.299 23.7546C172.372 23.7983 172.432 23.8624 172.47 23.939C172.508 24.0157 172.524 24.1018 172.515 24.187C172.53 24.2621 172.529 24.3396 172.511 24.4142C172.494 24.4889 172.461 24.5589 172.414 24.6195Z" fill="white"/>
<path d="M178.337 25.6289H179.303V30.5442H178.279L176.261 27.0415V30.5442H175.281V25.6289H176.377L178.323 29.0595L178.337 25.6289Z" fill="white"/>
<path d="M127.051 14.8598L127.728 11.0977H133.148L132.485 14.8598H127.051Z" fill="white"/>
<path d="M144.809 8.25843C144.828 8.05825 144.789 7.85682 144.697 7.678C144.605 7.49918 144.464 7.35045 144.29 7.24943C143.93 7.04795 143.52 6.95297 143.108 6.97555C142.042 6.97555 141.537 7.27825 141.436 7.826C141.047 10.0458 149.652 8.66204 148.643 14.0674C148.038 17.4981 144.925 19.1701 140.932 19.1701C136.939 19.1701 134.979 16.8927 135.339 14.2116H139.923C139.912 14.4392 139.959 14.6658 140.06 14.8701C140.161 15.0744 140.312 15.2496 140.499 15.3792C140.877 15.6364 141.326 15.7676 141.782 15.7539C142.979 15.7539 143.843 15.3647 143.959 14.6584C144.362 12.4098 135.714 13.9665 136.752 8.28726C137.314 5.14492 140.254 3.54492 143.959 3.54492C148.009 3.54492 149.48 5.64943 149.364 8.25843H144.809Z" fill="white"/>
<path d="M150 18.7375L152.623 3.89062H159.571C162.843 3.89062 165.337 4.68342 164.804 7.62396C164.646 8.31027 164.343 8.95483 163.915 9.51428C163.488 10.0737 162.945 10.535 162.324 10.8672C162.67 10.968 162.992 11.1362 163.272 11.3622C163.552 11.5881 163.784 11.8673 163.956 12.1836C164.127 12.4999 164.235 12.847 164.271 13.2049C164.308 13.5629 164.273 13.9245 164.169 14.269C163.578 17.5843 160.883 18.7375 157.106 18.7375H150ZM155.881 12.5393L155.391 15.278H157.452C158.634 15.278 159.571 15.033 159.773 13.9231C159.975 12.8131 158.908 12.4816 157.395 12.4816L155.881 12.5393ZM156.775 7.3645L156.342 9.84378H158.332C158.734 9.90488 159.145 9.81707 159.487 9.59681C159.83 9.37655 160.08 9.03897 160.191 8.64738C160.393 7.49423 159.47 7.47981 158.461 7.47981L156.775 7.3645Z" fill="white"/>
<path d="M164.516 18.7375L172.343 3.89062H177.186L179.795 18.7375H175.038L174.822 16.7915H170.094L169.171 18.7375H164.516ZM173.928 8.37351L171.535 13.7357H174.548L173.928 8.37351Z" fill="white"/>
<path d="M53.1068 9.96092C52.0556 9.31363 50.8381 8.98794 49.6041 9.02398C49.297 9.00242 48.9887 9.00242 48.6816 9.02398C47.4661 9.13532 46.2997 9.55723 45.2942 10.2492C44.6555 10.7005 44.1153 11.2769 43.7065 11.9435C43.2976 12.6101 43.0286 13.3529 42.9158 14.1267V14.6168V15.1933C42.8977 15.7558 43.02 16.3139 43.2717 16.8172C43.5233 17.3205 43.8964 17.7532 44.3573 18.0762C45.4259 18.7742 46.6855 19.1219 47.9609 19.0708C48.2441 19.0867 48.528 19.0867 48.8113 19.0708C48.9693 19.0891 49.1289 19.0891 49.287 19.0708C49.6762 18.9988 49.9933 18.9123 50.2239 18.8546L50.9014 18.6096C51.3579 18.4133 51.8009 18.187 52.2275 17.9321C52.6348 17.6392 53.0072 17.3007 53.3374 16.9231C54.033 16.0633 54.4859 15.0331 54.6491 13.9393V12.9591C54.69 12.3662 54.5679 11.7734 54.296 11.245C54.0242 10.7165 53.6129 10.2724 53.1068 9.96092ZM49.9645 15.5537C49.8415 15.807 49.6618 16.0285 49.4393 16.201C49.2168 16.3735 48.9575 16.4923 48.6816 16.5483C48.5335 16.5715 48.3828 16.5715 48.2347 16.5483C47.3266 16.5483 46.8798 16.015 46.8798 14.9339C47.0022 14.1089 47.2349 13.3041 47.5717 12.5411C47.6886 12.3151 47.8516 12.1163 48.0503 11.9573C48.2489 11.7984 48.4787 11.683 48.7248 11.6186C48.9164 11.5965 49.1098 11.5965 49.3014 11.6186C50.1374 11.6186 50.5699 12.1952 50.5699 13.3483C50.551 14.1218 50.3432 14.879 49.9645 15.5537Z" fill="white"/>
<path d="M27.5777 9.62814C26.5392 9.14044 25.3916 8.93178 24.248 9.02273H23.9597C23.3687 9.02273 22.8354 9.02273 22.3453 9.02273C19.693 9.29661 18.2083 10.3489 17.8624 12.1651H21.7687C21.8783 11.8911 22.083 11.6659 22.3453 11.5308C22.6524 11.3724 22.9943 11.2931 23.3399 11.3002C24.1327 11.3002 24.5218 11.5308 24.5218 11.9777C24.5218 12.4245 24.32 12.5254 23.8876 12.684C23.3838 12.8286 22.8673 12.9252 22.3453 12.9723H21.9128L20.4714 13.1885L19.448 13.3903C18.8059 13.5444 18.2024 13.829 17.675 14.2263C17.0852 14.7122 16.6868 15.3915 16.5507 16.1435C16.5611 16.2393 16.5611 16.3359 16.5507 16.4317V16.8353C16.5308 17.1354 16.5894 17.4355 16.7209 17.7059C16.8523 17.9764 17.052 18.2079 17.3002 18.3777C17.9757 18.8512 18.7816 19.1031 19.6065 19.0984H19.8083C20.7211 19.1049 21.625 18.9182 22.4606 18.5507C22.9212 18.3271 23.3603 18.0617 23.7723 17.7579V18.8101H27.9236V18.6371C27.6999 18.4486 27.5473 18.1892 27.4912 17.902L27.5345 17.2966L28.4137 12.6263C28.477 12.2642 28.5156 11.8982 28.5291 11.5308C28.5601 11.157 28.4877 10.7817 28.32 10.4462C28.1522 10.1106 27.8954 9.82764 27.5777 9.62814ZM23.3399 16.2876C23.1533 16.5102 22.9226 16.6918 22.6624 16.8209L22.3453 16.9362C22.1583 16.993 21.9641 17.0222 21.7687 17.0227C21.0336 17.0227 20.6732 16.7777 20.6732 16.2876V16.2011C20.689 16.0406 20.7448 15.8865 20.8354 15.7531C20.9261 15.6196 21.0487 15.511 21.1921 15.4371L21.7975 15.1921C21.9749 15.1262 22.1584 15.0779 22.3453 15.048H22.6191C23.1097 14.9588 23.5918 14.8286 24.0606 14.6588C23.9778 15.2585 23.7281 15.823 23.3399 16.2876Z" fill="white"/>
<path d="M40.3601 10.0894C39.2751 9.35525 37.9777 9.0005 36.67 9.08039C34.9849 8.97313 33.3187 9.4858 31.9853 10.5218C30.8941 11.4999 30.1716 12.8228 29.9385 14.2696V14.7164L29.8376 15.2353C29.8212 15.78 29.9265 16.3214 30.146 16.8202C30.3654 17.3189 30.6934 17.7624 31.1061 18.1182C32.1743 18.9295 33.5014 19.324 34.8394 19.2281C36.2688 19.2488 37.6776 18.8854 38.9187 18.1759C40.0291 17.5538 40.8479 16.5172 41.1962 15.293H37.1169C37.0138 15.6963 36.7822 16.0551 36.4571 16.3151C36.1321 16.5752 35.7312 16.7224 35.3151 16.7344C34.3493 16.7344 33.8736 16.2155 33.8736 15.1633C33.9639 14.3073 34.1876 13.4707 34.5367 12.684C34.6931 12.3689 34.9397 12.1074 35.2452 11.9328C35.5506 11.7583 35.9011 11.6786 36.252 11.7038C36.421 11.6884 36.5913 11.713 36.7491 11.7756C36.9069 11.8382 37.0477 11.937 37.1601 12.0642C37.3555 12.281 37.4589 12.5653 37.4484 12.857V12.9723H41.5133V12.4389C41.5144 11.9851 41.411 11.537 41.211 11.1295C41.011 10.7221 40.7199 10.3662 40.3601 10.0894Z" fill="white"/>
<path d="M14.8919 1.2968C13.5031 0.364621 11.8487 -0.0906999 10.1784 -0.000492172C9.746 -0.000492172 9.35681 -0.000492172 8.99645 -0.000492172C8.63609 -0.000492172 8.27573 0.0715799 7.92978 0.114823C7.27663 0.262701 6.63572 0.460273 6.01267 0.705814C4.91567 1.15283 3.93117 1.83706 3.12978 2.70942C2.41638 3.52407 1.9468 4.52317 1.77483 5.5923V6.18329L1.67393 6.91843C1.62885 7.52136 1.73743 8.12588 1.98952 8.67544C2.24161 9.22499 2.62897 9.70163 3.11537 10.0608C4.37896 10.8294 5.76283 11.38 7.20906 11.6896C8.04561 11.9278 8.86847 12.2117 9.67393 12.54C9.84271 12.6272 9.98594 12.7567 10.0896 12.9159C10.1932 13.0751 10.2536 13.2585 10.2649 13.4482V13.7509C10.0631 14.5725 9.2415 15.0049 7.8433 15.0049C7.26588 15.0065 6.70028 14.8413 6.21447 14.5292C5.97899 14.3718 5.78777 14.1566 5.65908 13.9043C5.53038 13.652 5.4685 13.3709 5.47933 13.0878H0.00185671C-0.0318689 13.3172 -0.0318689 13.5503 0.00185671 13.7797C-0.0156234 14.4852 0.125546 15.1856 0.414946 15.8293C0.704347 16.473 1.13459 17.0434 1.67393 17.4986C3.09227 18.6889 4.91431 19.2876 6.76222 19.1707C8.83055 19.2304 10.8769 18.7325 12.6865 17.7292C13.5413 17.2288 14.271 16.5405 14.8204 15.7164C15.3698 14.8922 15.7245 13.9539 15.8577 12.9725V11.9058C15.8759 11.3581 15.7684 10.8136 15.5436 10.3138C15.3187 9.81413 14.9824 9.37254 14.5604 9.02293C13.4729 8.22046 12.2313 7.65121 10.9136 7.35086L9.09735 6.84635C8.58127 6.7128 8.09315 6.48826 7.65591 6.18329C7.52453 6.09538 7.41565 5.97784 7.33803 5.84013C7.26042 5.70243 7.21624 5.54841 7.20906 5.3905V5.15987C7.33879 4.52563 7.97303 4.1941 9.09735 4.1941C10.5388 4.1941 11.2163 4.66978 11.2163 5.63554V5.76527H16.6217V5.44816C16.6857 4.66837 16.562 3.88459 16.2611 3.16236C15.9602 2.44013 15.4907 1.80045 14.8919 1.2968Z" fill="white"/>
<path d="M111.771 9.98962C111.063 9.5112 110.218 9.27827 109.364 9.32655C108.645 9.33751 107.936 9.50125 107.285 9.80692C106.634 10.1126 106.055 10.5532 105.588 11.0995L105.876 9.55718H102.186L100.398 19.1716H104.449L105.357 14.2707C105.43 13.6923 105.676 13.1495 106.063 12.7139C106.4 12.4298 106.835 12.2899 107.274 12.3248C107.429 12.3032 107.586 12.3178 107.734 12.3674C107.882 12.417 108.017 12.5002 108.127 12.6106C108.237 12.721 108.321 12.8554 108.37 13.0034C108.42 13.1514 108.434 13.3089 108.413 13.4635V14.0833L107.447 19.1716H111.469L112.55 13.4058C112.63 13.0267 112.668 12.6401 112.665 12.2527C112.704 11.8318 112.643 11.4077 112.488 11.0146C112.333 10.6215 112.087 10.2704 111.771 9.98962Z" fill="white"/>
<path d="M126.746 9.19592H122.047L118.919 12.1076L120.519 3.45898H116.483L113.586 19.1707H117.622L118.199 16.1293L119.078 15.3941L120.577 19.1707H125.406L122.321 12.9004L126.746 9.19592Z" fill="white"/>
<path d="M73.1244 9.94466C72.422 9.48067 71.5856 9.26269 70.746 9.32484C70.0118 9.32525 69.2861 9.48233 68.6175 9.78559C67.9488 10.0888 67.3526 10.5313 66.8686 11.0834C66.5082 9.90142 65.5424 9.32484 63.9857 9.32484H63.8848C63.2311 9.34442 62.5904 9.51198 62.0109 9.81493C61.4159 10.1108 60.8788 10.5112 60.4253 10.9969L60.6704 9.55547H56.937L55.1641 19.1699H59.1857L60.0794 14.269C60.1789 13.7387 60.4121 13.2426 60.7569 12.8275C60.9033 12.6785 61.0784 12.5608 61.2717 12.4815C61.4649 12.4022 61.6723 12.363 61.8812 12.3663C62.0217 12.3453 62.1652 12.357 62.3004 12.4005C62.4356 12.4441 62.559 12.5183 62.6608 12.6173C62.7627 12.7164 62.8403 12.8376 62.8875 12.9716C62.9348 13.1056 62.9505 13.2487 62.9334 13.3897V14.2257L61.9821 19.1699H66.0037L66.9118 14.269C66.9594 13.6598 67.2137 13.0851 67.6325 12.6402C67.9459 12.4363 68.311 12.3263 68.6848 12.323C68.9871 12.2918 69.2902 12.374 69.5352 12.5537C69.6306 12.658 69.703 12.7812 69.7477 12.9153C69.7924 13.0494 69.8084 13.1914 69.7947 13.332C69.7827 13.647 69.7441 13.9605 69.6794 14.269L68.7713 19.1699H72.7929L73.874 13.4041C73.9507 12.9276 73.9845 12.4452 73.9749 11.9627C73.9928 11.5841 73.9258 11.2064 73.7786 10.8572C73.6314 10.508 73.4079 10.1962 73.1244 9.94466Z" fill="white"/>
<path d="M98.6098 9.62767C97.5761 9.14118 96.4334 8.93252 95.2944 9.02227H94.9773C94.4152 9.02227 93.8674 9.02227 93.3917 9.02227C90.7251 9.29614 89.226 10.3484 88.9089 12.1646H92.8007C92.928 11.8976 93.1343 11.6761 93.3917 11.5304C93.7028 11.3683 94.0502 11.2889 94.4008 11.2997C95.1647 11.2997 95.5683 11.5304 95.5683 11.9772C95.5683 12.4241 95.3377 12.525 94.9341 12.6835C94.4295 12.8249 93.9133 12.9213 93.3917 12.9718H92.9449L91.5035 13.188L90.4656 13.3898C89.8324 13.5442 89.2384 13.8289 88.7215 14.2259C88.1272 14.7102 87.7238 15.3894 87.5827 16.143C87.5827 16.143 87.5827 16.3015 87.5107 16.4313V16.8349C87.4936 17.1346 87.5535 17.4336 87.6847 17.7036C87.8159 17.9736 88.014 18.2055 88.2602 18.3772C88.9335 18.8552 89.7409 19.1075 90.5665 19.0979H90.7539C92.191 19.1265 93.5931 18.6524 94.7179 17.7574V18.8097H98.8836V18.6367C98.6686 18.4409 98.5179 18.1846 98.4512 17.9015L98.5665 17.2673L99.4602 12.6691C99.5255 12.2927 99.564 11.9122 99.5755 11.5304C99.6067 11.1549 99.533 10.7781 99.3624 10.4421C99.1919 10.1061 98.9313 9.82413 98.6098 9.62767ZM94.4008 16.2871C94.201 16.514 93.9553 16.6957 93.68 16.8205L93.3917 16.9358C93.2001 16.9938 93.0009 17.0229 92.8007 17.0223C92.08 17.0223 91.7197 16.7772 91.7197 16.2871V16.2006C91.7355 16.0401 91.7912 15.8861 91.8819 15.7526C91.9725 15.6192 92.0952 15.5105 92.2386 15.4367L92.8296 15.1916C93.0127 15.1281 93.2007 15.0799 93.3917 15.0475H93.6512C94.1417 14.9581 94.6238 14.8279 95.0926 14.6583C95.0059 15.2517 94.7676 15.8127 94.4008 16.2871Z" fill="white"/>
<path d="M83.3895 9.02171C82.8118 9.00871 82.2362 9.09651 81.6886 9.28117C81.476 9.3854 81.2691 9.50088 81.0688 9.62711C80.7586 9.81367 80.4644 10.0258 80.1895 10.2613L81.4724 3.14062H77.4219L74.5391 18.8812H78.1571L78.4598 17.5262C78.661 18.0406 79.0212 18.4774 79.4878 18.773C79.9545 19.0685 80.5033 19.2074 81.0544 19.1695H81.2562C82.0377 19.2 82.8154 19.0462 83.5265 18.7207C84.2376 18.3952 84.8622 17.907 85.3499 17.2956C86.3909 16.0474 86.9486 14.4666 86.921 12.8415C86.946 12.3348 86.8653 11.8283 86.6842 11.3544C86.5031 10.8804 86.2254 10.4493 85.8688 10.0884C85.554 9.74593 85.1704 9.47389 84.7432 9.29006C84.3159 9.10624 83.8546 9.01479 83.3895 9.02171ZM82.2508 15.4938C81.9849 15.9284 81.5615 16.2434 81.0688 16.3731C80.9344 16.3809 80.7996 16.3809 80.6652 16.3731C79.7571 16.3731 79.3102 15.8109 79.3102 14.7154C79.4431 14.0085 79.6761 13.3241 80.0021 12.683C80.1211 12.4976 80.2774 12.3391 80.4611 12.2175C80.6447 12.0959 80.8517 12.0138 81.0688 11.9767C81.2225 11.9689 81.3764 11.9689 81.5301 11.9767C82.4093 11.9767 82.8418 12.5244 82.8418 13.5911C82.8291 14.2685 82.6241 14.9284 82.2508 15.4938Z" fill="white"/>
</g>
<defs>
<clipPath id="clip0_9829_55963">
<rect width="181" height="32" fill="white"/>
</clipPath>
</defs>
</svg>
