<svg width="20" height="20" viewBox="0 0 20 20" fill="none" xmlns="http://www.w3.org/2000/svg">
<g clip-path="url(#clip0_4914_51265)">
<path d="M7.5 10C7.5 10.663 7.76339 11.2989 8.23223 11.7678C8.70107 12.2366 9.33696 12.5 10 12.5C10.663 12.5 11.2989 12.2366 11.7678 11.7678C12.2366 11.2989 12.5 10.663 12.5 10C12.5 9.33696 12.2366 8.70107 11.7678 8.23223C11.2989 7.76339 10.663 7.5 10 7.5C9.33696 7.5 8.70107 7.76339 8.23223 8.23223C7.76339 8.70107 7.5 9.33696 7.5 10Z" stroke="black" stroke-width="1.25" stroke-linecap="round" stroke-linejoin="round"/>
<path d="M2.5 6.66667C2.5 6.22464 2.67559 5.80072 2.98816 5.48816C3.30072 5.17559 3.72464 5 4.16667 5H15.8333C16.2754 5 16.6993 5.17559 17.0118 5.48816C17.3244 5.80072 17.5 6.22464 17.5 6.66667V13.3333C17.5 13.7754 17.3244 14.1993 17.0118 14.5118C16.6993 14.8244 16.2754 15 15.8333 15H4.16667C3.72464 15 3.30072 14.8244 2.98816 14.5118C2.67559 14.1993 2.5 13.7754 2.5 13.3333V6.66667Z" stroke="black" stroke-width="1.25" stroke-linecap="round" stroke-linejoin="round"/>
<path d="M15 10H15.0083" stroke="black" stroke-width="1.25" stroke-linecap="round" stroke-linejoin="round"/>
<path d="M5 10H5.00833" stroke="black" stroke-width="1.25" stroke-linecap="round" stroke-linejoin="round"/>
</g>
<defs>
<clipPath id="clip0_4914_51265">
<rect width="20" height="20" fill="white"/>
</clipPath>
</defs>
</svg>
