<svg width="48" height="48" viewBox="0 0 48 48" fill="none" xmlns="http://www.w3.org/2000/svg">
<g clip-path="url(#clip0_2232_37548)">
<rect width="48" height="48" rx="4" fill="#F9E3E1"/>
<g clip-path="url(#clip1_2232_37548)">
<path d="M18 15C18 14.5858 18.3358 14.25 18.75 14.25H29.25L34.5 19.5V33C34.5 33.4142 34.1642 33.75 33.75 33.75H18.75C18.3358 33.75 18 33.4142 18 33V15Z" fill="#BA2417"/>
<rect x="18" y="28.5" width="8.25" height="5.25" fill="#BA2417"/>
<rect x="26.25" y="28.5" width="8.25" height="5.25" fill="#BA2417"/>
</g>
<path d="M34.5 19.5H30C29.5858 19.5 29.25 19.1642 29.25 18.75V14.25L31.875 16.875L34.5 19.5Z" fill="white" fill-opacity="0.6"/>
<g filter="url(#filter0_ddd_2232_37548)">
<rect x="13.5" y="21.75" width="13.5" height="7.5" rx="0.75" fill="#EC5649"/>
</g>
<path d="M18.1655 24.99C18.1655 24.336 17.7335 23.766 16.7855 23.766H14.8175V27.75H15.6035V26.22H16.7855C17.7335 26.22 18.1655 25.656 18.1655 24.99ZM15.6035 24.468H16.7315C17.1395 24.468 17.3795 24.672 17.3795 24.99C17.3795 25.308 17.1395 25.518 16.7315 25.518H15.6035V24.468ZM18.8429 23.766V27.75H20.2229C21.6089 27.75 22.3949 26.844 22.3949 25.758C22.3949 24.672 21.6089 23.766 20.2229 23.766H18.8429ZM19.6289 27.048V24.468H20.1989C21.0629 24.468 21.6089 25.008 21.6089 25.758C21.6089 26.508 21.0629 27.048 20.1989 27.048H19.6289ZM25.8986 24.468V23.766H23.1026V27.75H23.8886V26.106H25.8566V25.404H23.8886V24.468H25.8986Z" fill="white"/>
</g>
<defs>
<filter id="filter0_ddd_2232_37548" x="-1.5" y="14.25" width="43.5" height="37.5" filterUnits="userSpaceOnUse" color-interpolation-filters="sRGB">
<feFlood flood-opacity="0" result="BackgroundImageFix"/>
<feColorMatrix in="SourceAlpha" type="matrix" values="0 0 0 0 0 0 0 0 0 0 0 0 0 0 0 0 0 0 127 0" result="hardAlpha"/>
<feOffset/>
<feGaussianBlur stdDeviation="0.375"/>
<feColorMatrix type="matrix" values="0 0 0 0 0 0 0 0 0 0 0 0 0 0 0 0 0 0 0.04 0"/>
<feBlend mode="normal" in2="BackgroundImageFix" result="effect1_dropShadow_2232_37548"/>
<feColorMatrix in="SourceAlpha" type="matrix" values="0 0 0 0 0 0 0 0 0 0 0 0 0 0 0 0 0 0 127 0" result="hardAlpha"/>
<feOffset dy="1.5"/>
<feGaussianBlur stdDeviation="2.25"/>
<feColorMatrix type="matrix" values="0 0 0 0 0 0 0 0 0 0 0 0 0 0 0 0 0 0 0.04 0"/>
<feBlend mode="normal" in2="effect1_dropShadow_2232_37548" result="effect2_dropShadow_2232_37548"/>
<feColorMatrix in="SourceAlpha" type="matrix" values="0 0 0 0 0 0 0 0 0 0 0 0 0 0 0 0 0 0 127 0" result="hardAlpha"/>
<feOffset dy="7.5"/>
<feGaussianBlur stdDeviation="7.5"/>
<feColorMatrix type="matrix" values="0 0 0 0 0 0 0 0 0 0 0 0 0 0 0 0 0 0 0.04 0"/>
<feBlend mode="normal" in2="effect2_dropShadow_2232_37548" result="effect3_dropShadow_2232_37548"/>
<feBlend mode="normal" in="SourceGraphic" in2="effect3_dropShadow_2232_37548" result="shape"/>
</filter>
<clipPath id="clip0_2232_37548">
<rect width="48" height="48" rx="4" fill="white"/>
</clipPath>
<clipPath id="clip1_2232_37548">
<rect x="18" y="14.25" width="16.5" height="19.5" rx="0.75" fill="white"/>
</clipPath>
</defs>
</svg>
