<svg width="42" height="36" viewBox="0 0 42 36" fill="none" xmlns="http://www.w3.org/2000/svg">
<g clip-path="url(#clip0_2152_32227)">
<path d="M18 3C18 2.58579 18.3358 2.25 18.75 2.25H29.25L34.5 7.5V21C34.5 21.4142 34.1642 21.75 33.75 21.75H18.75C18.3358 21.75 18 21.4142 18 21V3Z" fill="#BA2417"/>
<rect x="18" y="16.5" width="8.25" height="5.25" fill="#BA2417"/>
<rect x="26.25" y="16.5" width="8.25" height="5.25" fill="#BA2417"/>
</g>
<path d="M34.5 7.5H30C29.5858 7.5 29.25 7.16421 29.25 6.75V2.25L31.875 4.875L34.5 7.5Z" fill="white" fill-opacity="0.6"/>
<g filter="url(#filter0_ddd_2152_32227)">
<rect x="13.5" y="9.75" width="13.5" height="7.5" rx="0.75" fill="#EC5649"/>
</g>
<path d="M18.1655 12.99C18.1655 12.336 17.7335 11.766 16.7855 11.766H14.8175V15.75H15.6035V14.22H16.7855C17.7335 14.22 18.1655 13.656 18.1655 12.99ZM15.6035 12.468H16.7315C17.1395 12.468 17.3795 12.672 17.3795 12.99C17.3795 13.308 17.1395 13.518 16.7315 13.518H15.6035V12.468ZM18.8429 11.766V15.75H20.2229C21.6089 15.75 22.3949 14.844 22.3949 13.758C22.3949 12.672 21.6089 11.766 20.2229 11.766H18.8429ZM19.6289 15.048V12.468H20.1989C21.0629 12.468 21.6089 13.008 21.6089 13.758C21.6089 14.508 21.0629 15.048 20.1989 15.048H19.6289ZM25.8986 12.468V11.766H23.1026V15.75H23.8886V14.106H25.8566V13.404H23.8886V12.468H25.8986Z" fill="white"/>
<defs>
<filter id="filter0_ddd_2152_32227" x="-1.5" y="2.25" width="43.5" height="37.5" filterUnits="userSpaceOnUse" color-interpolation-filters="sRGB">
<feFlood flood-opacity="0" result="BackgroundImageFix"/>
<feColorMatrix in="SourceAlpha" type="matrix" values="0 0 0 0 0 0 0 0 0 0 0 0 0 0 0 0 0 0 127 0" result="hardAlpha"/>
<feOffset/>
<feGaussianBlur stdDeviation="0.375"/>
<feColorMatrix type="matrix" values="0 0 0 0 0 0 0 0 0 0 0 0 0 0 0 0 0 0 0.04 0"/>
<feBlend mode="normal" in2="BackgroundImageFix" result="effect1_dropShadow_2152_32227"/>
<feColorMatrix in="SourceAlpha" type="matrix" values="0 0 0 0 0 0 0 0 0 0 0 0 0 0 0 0 0 0 127 0" result="hardAlpha"/>
<feOffset dy="1.5"/>
<feGaussianBlur stdDeviation="2.25"/>
<feColorMatrix type="matrix" values="0 0 0 0 0 0 0 0 0 0 0 0 0 0 0 0 0 0 0.04 0"/>
<feBlend mode="normal" in2="effect1_dropShadow_2152_32227" result="effect2_dropShadow_2152_32227"/>
<feColorMatrix in="SourceAlpha" type="matrix" values="0 0 0 0 0 0 0 0 0 0 0 0 0 0 0 0 0 0 127 0" result="hardAlpha"/>
<feOffset dy="7.5"/>
<feGaussianBlur stdDeviation="7.5"/>
<feColorMatrix type="matrix" values="0 0 0 0 0 0 0 0 0 0 0 0 0 0 0 0 0 0 0.04 0"/>
<feBlend mode="normal" in2="effect2_dropShadow_2152_32227" result="effect3_dropShadow_2152_32227"/>
<feBlend mode="normal" in="SourceGraphic" in2="effect3_dropShadow_2152_32227" result="shape"/>
</filter>
<clipPath id="clip0_2152_32227">
<rect x="18" y="2.25" width="16.5" height="19.5" rx="0.75" fill="white"/>
</clipPath>
</defs>
</svg>
