<svg width="24" height="24" viewBox="0 0 24 24" fill="none" xmlns="http://www.w3.org/2000/svg">
<g clip-path="url(#clip0_2115_29421)">
<path d="M12 24C17.5228 24 22 19.5228 22 14C22 8.47715 17.5228 4 12 4C6.47715 4 2 8.47715 2 14C2 19.5228 6.47715 24 12 24Z" fill="black" fill-opacity="0.25"/>
<path d="M12 19V19.01" stroke="white" stroke-width="1.5" stroke-linecap="round" stroke-linejoin="round"/>
<path d="M12 15.5002C11.9816 15.1755 12.0692 14.8537 12.2495 14.5832C12.4299 14.3126 12.6933 14.108 13 14.0002C13.3759 13.8564 13.7132 13.6274 13.9856 13.3311C14.2579 13.0348 14.4577 12.6794 14.5693 12.2928C14.6809 11.9061 14.7013 11.4989 14.6287 11.103C14.5562 10.7072 14.3928 10.3336 14.1513 10.0117C13.9099 9.68974 13.597 9.42825 13.2373 9.24778C12.8776 9.06732 12.4809 8.97281 12.0785 8.97169C11.6761 8.97057 11.2789 9.06288 10.9182 9.24135C10.5576 9.41982 10.2432 9.67957 10 10.0002" stroke="white" stroke-width="1.5" stroke-linecap="round" stroke-linejoin="round"/>
</g>
<defs>
<clipPath id="clip0_2115_29421">
<rect width="24" height="24" fill="white"/>
</clipPath>
</defs>
</svg>
