<svg width="64" height="64" viewBox="0 0 64 64" fill="none" xmlns="http://www.w3.org/2000/svg">
<path d="M18.3115 50.372L13.6279 45.6884L20.0087 39.3076L24.6923 43.9912L18.3115 50.372Z" fill="url(#paint0_linear_1909_47261)"/>
<path d="M17.3184 41.998C18.6657 43.7584 20.2415 45.3342 22.0019 46.6815L24.6922 43.9912L20.0086 39.3076L17.3184 41.998Z" fill="url(#paint1_linear_1909_47261)"/>
<path d="M38.9969 50.0056C52.8056 50.0056 63.9997 38.8115 63.9997 25.0028C63.9997 11.1941 52.8056 0 38.9969 0C25.1883 0 13.9941 11.1941 13.9941 25.0028C13.9941 38.8115 25.1883 50.0056 38.9969 50.0056Z" fill="url(#paint2_linear_1909_47261)"/>
<path d="M38.9974 0C38.1498 0 37.3122 0.0426667 36.4863 0.125114C49.1158 1.38453 58.9781 12.0417 58.9781 25.0028C58.9781 37.9639 49.1158 48.6209 36.4863 49.8805C37.3122 49.9628 38.1498 50.0056 38.9974 50.0056C52.8061 50.0056 64.0002 38.8114 64.0002 25.0028C64.0002 11.1942 52.8061 0 38.9974 0Z" fill="url(#paint3_linear_1909_47261)"/>
<path d="M38.9966 42.6622C48.7499 42.6622 56.6564 34.7557 56.6564 25.0025C56.6564 15.2493 48.7499 7.34277 38.9966 7.34277C29.2434 7.34277 21.3369 15.2493 21.3369 25.0025C21.3369 34.7557 29.2434 42.6622 38.9966 42.6622Z" fill="url(#paint4_linear_1909_47261)"/>
<path d="M38.9974 7.34277C38.1448 7.34277 37.3067 7.40451 36.4863 7.52135C45.05 8.74061 51.635 16.102 51.635 25.0026C51.635 33.9033 45.05 41.2647 36.4863 42.4839C37.3067 42.6008 38.1448 42.6625 38.9974 42.6625C48.7506 42.6625 56.6571 34.756 56.6571 25.0028C56.6571 15.2495 48.7506 7.34277 38.9974 7.34277Z" fill="url(#paint5_linear_1909_47261)"/>
<path d="M1.91486 62.0854C-0.928121 59.2424 -0.555165 54.5313 2.69955 52.1709L14.689 43.4764C15.4622 42.9159 16.5279 43.0002 17.2032 43.6755L20.3246 46.7969C20.9999 47.4722 21.0842 48.5381 20.5237 49.3111L11.8292 61.3006C9.46899 64.5554 4.75784 64.9284 1.91486 62.0854Z" fill="#0048D3"/>
<path d="M20.3248 46.7969L17.2034 43.6755C16.5281 43.0002 15.4622 42.9159 14.6892 43.4764L13.0902 44.636L15.2511 46.7969C15.9264 47.4722 16.0107 48.5381 15.4501 49.3111L6.75567 61.3006C6.0218 62.3125 5.06054 63.0455 3.99902 63.4903C6.70208 64.6282 9.98415 63.8453 11.8295 61.3006L20.524 49.3111C21.0845 48.538 21.0001 47.4722 20.3248 46.7969Z" fill="#002AB5"/>
<defs>
<linearGradient id="paint0_linear_1909_47261" x1="12.6746" y1="44.8397" x2="24.8316" y2="44.8397" gradientUnits="userSpaceOnUse">
<stop stop-color="#B5ADB6"/>
<stop offset="0.5106" stop-color="#918291"/>
<stop offset="1" stop-color="#554E56"/>
</linearGradient>
<linearGradient id="paint1_linear_1909_47261" x1="8.48284" y1="42.9946" x2="22.4914" y2="42.9946" gradientUnits="userSpaceOnUse">
<stop stop-color="#B5ADB6"/>
<stop offset="0.5106" stop-color="#918291"/>
<stop offset="1" stop-color="#554E56"/>
</linearGradient>
<linearGradient id="paint2_linear_1909_47261" x1="13.9941" y1="25.0028" x2="63.9997" y2="25.0028" gradientUnits="userSpaceOnUse">
<stop stop-color="#2772FF"/>
<stop offset="1" stop-color="#29BCE2"/>
</linearGradient>
<linearGradient id="paint3_linear_1909_47261" x1="36.4863" y1="25.0028" x2="64.0002" y2="25.0028" gradientUnits="userSpaceOnUse">
<stop stop-color="#2772FF"/>
<stop offset="1" stop-color="#29BCE2"/>
</linearGradient>
<linearGradient id="paint4_linear_1909_47261" x1="22.4668" y1="25.0025" x2="52.7805" y2="25.0025" gradientUnits="userSpaceOnUse">
<stop stop-color="white"/>
<stop offset="1" stop-color="#F9F3F1"/>
</linearGradient>
<linearGradient id="paint5_linear_1909_47261" x1="38.1865" y1="25.0025" x2="82.5654" y2="25.0025" gradientUnits="userSpaceOnUse">
<stop stop-color="#F8F6F7"/>
<stop offset="1" stop-color="#D1CEEB"/>
</linearGradient>
</defs>
</svg>
