<svg width="40" height="40" viewBox="0 0 40 40" fill="none" xmlns="http://www.w3.org/2000/svg">
<g clip-path="url(#clip0_2582_8447)">
<path d="M11.4448 31.4826L8.51758 28.5554L12.5056 24.5674L15.4328 27.4946L11.4448 31.4826Z" fill="url(#paint0_linear_2582_8447)"/>
<path d="M10.8242 26.2489C11.6663 27.3491 12.6512 28.334 13.7514 29.1761L15.4328 27.4946L12.5056 24.5674L10.8242 26.2489Z" fill="url(#paint1_linear_2582_8447)"/>
<path d="M24.3728 31.2535C33.0033 31.2535 39.9996 24.2572 39.9996 15.6267C39.9996 6.99633 33.0033 0 24.3728 0C15.7424 0 8.74609 6.99633 8.74609 15.6267C8.74609 24.2572 15.7424 31.2535 24.3728 31.2535Z" fill="url(#paint2_linear_2582_8447)"/>
<path d="M24.3721 0C23.8424 0 23.3189 0.0266667 22.8027 0.0781961C30.6961 0.865333 36.8601 7.52604 36.8601 15.6267C36.8601 23.7275 30.6961 30.3881 22.8027 31.1753C23.3189 31.2267 23.8424 31.2535 24.3721 31.2535C33.0026 31.2535 39.9989 24.2571 39.9989 15.6267C39.9989 6.99639 33.0026 0 24.3721 0Z" fill="url(#paint3_linear_2582_8447)"/>
<path d="M24.3733 26.6645C30.469 26.6645 35.4106 21.7229 35.4106 15.6272C35.4106 9.53143 30.469 4.58984 24.3733 4.58984C18.2775 4.58984 13.3359 9.53143 13.3359 15.6272C13.3359 21.7229 18.2775 26.6645 24.3733 26.6645Z" fill="url(#paint4_linear_2582_8447)"/>
<path d="M24.3721 4.58984C23.8393 4.58984 23.3154 4.62843 22.8027 4.70145C28.155 5.46349 32.2707 10.0644 32.2707 15.6273C32.2707 21.1902 28.155 25.791 22.8027 26.5531C23.3154 26.6261 23.8393 26.6647 24.3721 26.6647C30.4679 26.6647 35.4095 21.7231 35.4095 15.6273C35.4095 9.53157 30.4679 4.58984 24.3721 4.58984Z" fill="url(#paint5_linear_2582_8447)"/>
<path d="M1.19679 38.8032C-0.580076 37.0264 -0.346978 34.0819 1.68722 32.6067L9.18063 27.1727C9.66385 26.8223 10.33 26.875 10.752 27.297L12.7029 29.248C13.1249 29.67 13.1777 30.3362 12.8273 30.8193L7.39326 38.3127C5.91812 40.347 2.97365 40.5801 1.19679 38.8032Z" fill="#0048D3"/>
<path d="M12.7036 29.248L10.7527 27.297C10.3307 26.875 9.66447 26.8223 9.18133 27.1727L8.18196 27.8974L9.53255 29.248C9.95459 29.67 10.0073 30.3362 9.65694 30.8193L4.2229 38.3127C3.76424 38.9452 3.16345 39.4033 2.5 39.6813C4.18941 40.3925 6.24071 39.9032 7.39404 38.3127L12.8281 30.8193C13.1784 30.3361 13.1256 29.67 12.7036 29.248Z" fill="#002AB5"/>
</g>
<defs>
<linearGradient id="paint0_linear_2582_8447" x1="7.92173" y1="28.025" x2="15.5199" y2="28.025" gradientUnits="userSpaceOnUse">
<stop stop-color="#B5ADB6"/>
<stop offset="0.5106" stop-color="#918291"/>
<stop offset="1" stop-color="#554E56"/>
</linearGradient>
<linearGradient id="paint1_linear_2582_8447" x1="5.30202" y1="26.8718" x2="14.0574" y2="26.8718" gradientUnits="userSpaceOnUse">
<stop stop-color="#B5ADB6"/>
<stop offset="0.5106" stop-color="#918291"/>
<stop offset="1" stop-color="#554E56"/>
</linearGradient>
<linearGradient id="paint2_linear_2582_8447" x1="8.74609" y1="15.6267" x2="39.9996" y2="15.6267" gradientUnits="userSpaceOnUse">
<stop stop-color="#2772FF"/>
<stop offset="1" stop-color="#29BCE2"/>
</linearGradient>
<linearGradient id="paint3_linear_2582_8447" x1="22.8027" y1="15.6267" x2="39.9989" y2="15.6267" gradientUnits="userSpaceOnUse">
<stop stop-color="#2772FF"/>
<stop offset="1" stop-color="#29BCE2"/>
</linearGradient>
<linearGradient id="paint4_linear_2582_8447" x1="14.0421" y1="15.6272" x2="32.9882" y2="15.6272" gradientUnits="userSpaceOnUse">
<stop stop-color="white"/>
<stop offset="1" stop-color="#F9F3F1"/>
</linearGradient>
<linearGradient id="paint5_linear_2582_8447" x1="23.8653" y1="15.6272" x2="51.6022" y2="15.6272" gradientUnits="userSpaceOnUse">
<stop stop-color="#F8F6F7"/>
<stop offset="1" stop-color="#D1CEEB"/>
</linearGradient>
<clipPath id="clip0_2582_8447">
<rect width="40" height="40" fill="white"/>
</clipPath>
</defs>
</svg>
