<svg width="24" height="24" viewBox="0 0 24 24" fill="currentColor" xmlns="http://www.w3.org/2000/svg">
<g clip-path="url(#clip0_2565_8385)">
<path fill-rule="evenodd" clip-rule="evenodd" d="M12.5304 2.46967C12.2375 2.17678 11.7626 2.17678 11.4697 2.46967L2.46969 11.4697C2.25519 11.6842 2.19103 12.0068 2.30711 12.287C2.4232 12.5673 2.69668 12.75 3.00002 12.75H4.25002V19C4.25002 19.7293 4.53975 20.4288 5.05548 20.9445C5.5712 21.4603 6.27068 21.75 7.00002 21.75H17C17.7294 21.75 18.4288 21.4603 18.9446 20.9445C19.4603 20.4288 19.75 19.7293 19.75 19V12.75H21C21.3034 12.75 21.5768 12.5673 21.6929 12.287C21.809 12.0068 21.7449 11.6842 21.5304 11.4697L12.5304 2.46967ZM18.25 12C18.25 11.5858 18.5858 11.25 19 11.25H19.1894L12 4.06066L4.81068 11.25H5.00002C5.41424 11.25 5.75002 11.5858 5.75002 12V19C5.75002 19.3315 5.88172 19.6495 6.11614 19.8839C6.35056 20.1183 6.6685 20.25 7.00002 20.25H17C17.3315 20.25 17.6495 20.1183 17.8839 19.8839C18.1183 19.6495 18.25 19.3315 18.25 19V12Z" fill="currentColor"/>
<path d="M14 12H10V16H14V12Z" stroke="currentColor" stroke-width="1.5" stroke-linecap="round" stroke-linejoin="round" fill="white"/>
</g>
<defs>
<clipPath id="clip0_2565_8385">
<rect width="24" height="24" fill="currentColor"/>
</clipPath>
</defs>
</svg>
