<svg width="40" height="38" viewBox="0 0 40 38" fill="none" xmlns="http://www.w3.org/2000/svg">
<g clip-path="url(#clip0_2152_31962)">
<rect x="18" y="4.25" width="16.5" height="19.5" rx="0.75" fill="#C4C4C4"/>
<rect x="18" y="4.25" width="8.25" height="4.5" fill="#3248CA"/>
<rect x="26.25" y="4.25" width="8.25" height="4.5" fill="#4F65E6"/>
<rect x="18" y="8.75" width="8.25" height="5.25" fill="#1E34B7"/>
<rect x="26.25" y="8.75" width="8.25" height="5.25" fill="#3248CA"/>
<rect x="18" y="14" width="8.25" height="4.5" fill="#00169D"/>
<rect x="26.25" y="14" width="8.25" height="4.5" fill="#1E34B7"/>
<rect x="18" y="18.5" width="8.25" height="5.25" fill="#00169D"/>
<rect x="26.25" y="18.5" width="8.25" height="5.25" fill="#00169D"/>
</g>
<g filter="url(#filter0_ddd_2152_31962)">
<rect x="13.5" y="8" width="11.25" height="11.25" rx="0.75" fill="#0D55E0"/>
</g>
<path d="M15.1271 11.52L16.7921 16.5H17.8271L18.9971 12.825L20.1821 16.5H21.2171L22.8746 11.52H21.8771L20.6846 15.12L19.5071 11.52H18.4796L17.3246 15.1275L16.1246 11.52H15.1271Z" fill="white"/>
<defs>
<filter id="filter0_ddd_2152_31962" x="-1.5" y="0.5" width="41.25" height="41.25" filterUnits="userSpaceOnUse" color-interpolation-filters="sRGB">
<feFlood flood-opacity="0" result="BackgroundImageFix"/>
<feColorMatrix in="SourceAlpha" type="matrix" values="0 0 0 0 0 0 0 0 0 0 0 0 0 0 0 0 0 0 127 0" result="hardAlpha"/>
<feOffset/>
<feGaussianBlur stdDeviation="0.375"/>
<feColorMatrix type="matrix" values="0 0 0 0 0 0 0 0 0 0 0 0 0 0 0 0 0 0 0.04 0"/>
<feBlend mode="normal" in2="BackgroundImageFix" result="effect1_dropShadow_2152_31962"/>
<feColorMatrix in="SourceAlpha" type="matrix" values="0 0 0 0 0 0 0 0 0 0 0 0 0 0 0 0 0 0 127 0" result="hardAlpha"/>
<feOffset dy="1.5"/>
<feGaussianBlur stdDeviation="2.25"/>
<feColorMatrix type="matrix" values="0 0 0 0 0 0 0 0 0 0 0 0 0 0 0 0 0 0 0.04 0"/>
<feBlend mode="normal" in2="effect1_dropShadow_2152_31962" result="effect2_dropShadow_2152_31962"/>
<feColorMatrix in="SourceAlpha" type="matrix" values="0 0 0 0 0 0 0 0 0 0 0 0 0 0 0 0 0 0 127 0" result="hardAlpha"/>
<feOffset dy="7.5"/>
<feGaussianBlur stdDeviation="7.5"/>
<feColorMatrix type="matrix" values="0 0 0 0 0 0 0 0 0 0 0 0 0 0 0 0 0 0 0.04 0"/>
<feBlend mode="normal" in2="effect2_dropShadow_2152_31962" result="effect3_dropShadow_2152_31962"/>
<feBlend mode="normal" in="SourceGraphic" in2="effect3_dropShadow_2152_31962" result="shape"/>
</filter>
<clipPath id="clip0_2152_31962">
<rect x="18" y="4.25" width="16.5" height="19.5" rx="0.75" fill="white"/>
</clipPath>
</defs>
</svg>
