<svg width="279" height="30" viewBox="0 0 279 30" fill="none" xmlns="http://www.w3.org/2000/svg">
<path d="M197.262 22.9676L198.309 17.1533H206.685L205.66 22.9676H197.262Z" fill="white"/>
<path d="M224.709 12.764C224.738 12.4546 224.678 12.1433 224.536 11.867C224.394 11.5906 224.175 11.3608 223.907 11.2046C223.35 10.8933 222.717 10.7465 222.08 10.7814C220.432 10.7814 219.652 11.2492 219.496 12.0957C218.895 15.5263 232.194 13.3878 230.634 21.7416C229.699 27.0435 224.887 29.6276 218.716 29.6276C212.546 29.6276 209.516 26.1078 210.073 21.9643H217.157C217.14 22.316 217.213 22.6663 217.369 22.982C217.525 23.2977 217.758 23.5685 218.048 23.7688C218.631 24.1664 219.325 24.3691 220.031 24.348C221.88 24.348 223.216 23.7465 223.394 22.6549C224.018 19.1797 210.652 21.5856 212.256 12.8086C213.125 7.95222 217.669 5.47949 223.394 5.47949C229.654 5.47949 231.926 8.73191 231.748 12.764H224.709Z" fill="white"/>
<path d="M232.73 28.9598L236.785 6.01465H247.522C252.579 6.01465 256.433 7.23987 255.609 11.7843C255.365 12.845 254.897 13.8412 254.236 14.7057C253.575 15.5703 252.737 16.2833 251.777 16.7966C252.311 16.9524 252.809 17.2124 253.241 17.5616C253.674 17.9108 254.033 18.3422 254.299 18.831C254.564 19.3198 254.729 19.8563 254.786 20.4095C254.843 20.9627 254.789 21.5216 254.629 22.054C253.715 27.1776 249.549 28.9598 243.713 28.9598H232.73ZM241.819 19.3807L241.062 23.6133H244.248C246.074 23.6133 247.522 23.2346 247.834 21.5193C248.146 19.804 246.498 19.2916 244.158 19.2916L241.819 19.3807ZM243.201 11.3834L242.532 15.215H245.606C246.228 15.3094 246.864 15.1737 247.393 14.8333C247.922 14.4929 248.308 13.9712 248.48 13.366C248.792 11.5839 247.366 11.5616 245.807 11.5616L243.201 11.3834Z" fill="white"/>
<path d="M255.164 28.9598L267.26 6.01465H274.745L278.778 28.9598H271.426L271.092 25.9524H263.785L262.359 28.9598H255.164ZM269.711 12.9427L266.013 21.2297H270.669L269.711 12.9427Z" fill="white"/>
<path d="M82.9868 15.3929C81.3622 14.3925 79.4806 13.8892 77.5735 13.9449C77.0989 13.9116 76.6225 13.9116 76.1478 13.9449C74.2694 14.117 72.4667 14.769 70.9128 15.8384C69.9257 16.5358 69.0909 17.4267 68.459 18.4569C67.8271 19.4871 67.4114 20.635 67.2371 21.8309V22.5883V23.4794C67.2091 24.3486 67.3981 25.2111 67.7871 25.989C68.176 26.7669 68.7526 27.4356 69.4648 27.9348C71.1163 29.0135 73.0629 29.5508 75.034 29.4719C75.4717 29.4963 75.9105 29.4963 76.3483 29.4719C76.5925 29.5 76.8392 29.5 77.0834 29.4719C77.6849 29.3605 78.175 29.2268 78.5314 29.1377L79.5784 28.759C80.284 28.4557 80.9686 28.1059 81.6279 27.712C82.2573 27.2593 82.8328 26.7362 83.3432 26.1526C84.4182 24.8239 85.1182 23.2317 85.3704 21.5413V20.0265C85.4336 19.1102 85.2448 18.1941 84.8247 17.3773C84.4045 16.5606 83.769 15.8743 82.9868 15.3929ZM78.1305 24.0363C77.9404 24.4277 77.6627 24.77 77.3188 25.0366C76.975 25.3032 76.5742 25.4869 76.1478 25.5734C75.919 25.6093 75.686 25.6093 75.4572 25.5734C74.0538 25.5734 73.3632 24.7492 73.3632 23.0784C73.5524 21.8034 73.9121 20.5597 74.4325 19.3805C74.6131 19.0313 74.8651 18.7239 75.1721 18.4783C75.4791 18.2327 75.8343 18.0543 76.2146 17.9547C76.5107 17.9207 76.8097 17.9207 77.1057 17.9547C78.3978 17.9547 79.0661 18.8458 79.0661 20.628C79.0369 21.8234 78.7157 22.9935 78.1305 24.0363Z" fill="white"/>
<path d="M43.532 14.8808C41.9271 14.1271 40.1535 13.8046 38.3861 13.9452H37.9405C37.0272 13.9452 36.2029 13.9452 35.4455 13.9452C31.3466 14.3685 29.0521 15.9947 28.5174 18.8015H34.5545C34.7238 18.3782 35.0402 18.0302 35.4455 17.8214C35.9202 17.5764 36.4486 17.4539 36.9826 17.4649C38.2079 17.4649 38.8093 17.8214 38.8093 18.5119C38.8093 19.2025 38.4974 19.3585 37.8291 19.6035C37.0505 19.8271 36.2524 19.9762 35.4455 20.049H34.7772L32.5495 20.3832L30.9679 20.6951C29.9756 20.9333 29.0429 21.3731 28.2278 21.9871C27.3163 22.738 26.7006 23.7878 26.4902 24.9499C26.5064 25.098 26.5064 25.2474 26.4902 25.3955V26.0192C26.4595 26.483 26.5501 26.9467 26.7533 27.3647C26.9564 27.7827 27.265 28.1405 27.6486 28.4029C28.6925 29.1347 29.9381 29.5239 31.2129 29.5167H31.5248C32.9355 29.5267 34.3324 29.2383 35.6237 28.6702C36.3356 28.3247 37.0141 27.9146 37.6509 27.445V29.0712H44.0667V28.8038C43.7208 28.5124 43.485 28.1116 43.3984 27.6677L43.4652 26.7321L44.8241 19.5144C44.9219 18.9548 44.9814 18.3891 45.0023 17.8214C45.0502 17.2436 44.9385 16.6637 44.6792 16.1451C44.4199 15.6265 44.023 15.1892 43.532 14.8808ZM36.9826 25.1727C36.6943 25.5168 36.3378 25.7974 35.9356 25.997L35.4455 26.1752C35.1566 26.2629 34.8564 26.308 34.5545 26.3088C33.4183 26.3088 32.8614 25.9301 32.8614 25.1727V25.0391C32.8858 24.7909 32.972 24.5529 33.1121 24.3466C33.2522 24.1404 33.4417 23.9725 33.6634 23.8584L34.599 23.4797C34.8732 23.3778 35.1567 23.3032 35.4455 23.2569H35.8688C36.6269 23.1191 37.372 22.9179 38.0965 22.6554C37.9685 23.5824 37.5826 24.4547 36.9826 25.1727Z" fill="white"/>
<path d="M63.2842 15.5937C61.6073 14.4591 59.6022 13.9108 57.5813 14.0343C54.977 13.8685 52.402 14.6609 50.3413 16.262C48.6549 17.7736 47.5383 19.8181 47.178 22.054V22.7445L47.0221 23.5465C46.9967 24.3882 47.1596 25.225 47.4987 25.9958C47.8378 26.7665 48.3448 27.4519 48.9825 28.0019C50.6334 29.2556 52.6844 29.8653 54.7522 29.7172C56.9613 29.7492 59.1385 29.1876 61.0565 28.091C62.7726 27.1295 64.038 25.5276 64.5762 23.6356H58.2719C58.1125 24.2589 57.7546 24.8134 57.2523 25.2153C56.7499 25.6172 56.1304 25.8446 55.4873 25.8633C53.9947 25.8633 53.2596 25.0613 53.2596 23.4351C53.3991 22.1123 53.7449 20.8194 54.2843 19.6035C54.5261 19.1165 54.9072 18.7124 55.3793 18.4426C55.8513 18.1729 56.393 18.0497 56.9353 18.0887C57.1965 18.0648 57.4597 18.1028 57.7035 18.1996C57.9473 18.2963 58.1649 18.4491 58.3387 18.6456C58.6406 18.9807 58.8004 19.4201 58.7843 19.8708V20.049H65.0663V19.2248C65.0681 18.5233 64.9083 17.8309 64.5992 17.2012C64.2901 16.5715 63.8402 16.0214 63.2842 15.5937Z" fill="white"/>
<path d="M23.926 2.00469C21.7796 0.564038 19.2229 -0.13964 16.6415 -0.00022796C15.9732 -0.00022796 15.3717 -0.00022796 14.8148 -0.00022796C14.2579 -0.00022796 13.701 0.111156 13.1663 0.177987C12.1569 0.406525 11.1664 0.711864 10.2035 1.09134C8.50816 1.78218 6.98667 2.83962 5.74816 4.18781C4.64562 5.44683 3.91991 6.99088 3.65414 8.64318V9.55653L3.4982 10.6926C3.42853 11.6245 3.59634 12.5587 3.98594 13.408C4.37553 14.2573 4.97418 14.994 5.72588 15.549C7.6787 16.7369 9.81741 17.5878 12.0525 18.0663C13.3453 18.4344 14.617 18.8732 15.8618 19.3806C16.1227 19.5153 16.344 19.7155 16.5042 19.9615C16.6643 20.2076 16.7577 20.491 16.7752 20.784V21.2519C16.4633 22.5216 15.1935 23.1899 13.0327 23.1899C12.1403 23.1924 11.2662 22.9371 10.5154 22.4548C10.1515 22.2115 9.85596 21.879 9.65707 21.489C9.45818 21.099 9.36254 20.6646 9.37928 20.2271H0.914091C0.86197 20.5816 0.86197 20.9419 0.914091 21.2964C0.887076 22.3868 1.10525 23.4693 1.5525 24.464C1.99976 25.4588 2.66468 26.3404 3.4982 27.0438C5.69018 28.8834 8.50606 29.8087 11.3619 29.6279C14.5584 29.7203 17.7209 28.9508 20.5177 27.4003C21.8386 26.6269 22.9663 25.5631 23.8154 24.2894C24.6645 23.0158 25.2127 21.5657 25.4186 20.0489V18.4004C25.4467 17.554 25.2806 16.7124 24.9331 15.9401C24.5856 15.1678 24.0658 14.4854 23.4137 13.9451C21.7329 12.7049 19.8142 11.8251 17.7776 11.361L14.9708 10.5813C14.1732 10.3749 13.4188 10.0278 12.7431 9.55653C12.54 9.42067 12.3718 9.23901 12.2518 9.02619C12.1319 8.81337 12.0636 8.57535 12.0525 8.3313V7.97487C12.253 6.99469 13.2332 6.48233 14.9708 6.48233C17.1985 6.48233 18.2455 7.21746 18.2455 8.71001V8.9105H26.5993V8.42041C26.6982 7.21528 26.5071 6.00398 26.042 4.88781C25.577 3.77165 24.8514 2.78305 23.926 2.00469Z" fill="white"/>
<path d="M173.651 15.4377C172.556 14.6983 171.249 14.3384 169.93 14.413C168.819 14.4299 167.724 14.6829 166.717 15.1553C165.711 15.6277 164.817 16.3087 164.094 17.153L164.539 14.7694H158.837L156.074 29.628H162.334L163.737 22.0539C163.85 21.16 164.23 20.3212 164.829 19.648C165.349 19.2089 166.022 18.9927 166.7 19.0465C166.939 19.0132 167.183 19.0358 167.411 19.1124C167.64 19.1891 167.848 19.3178 168.018 19.4883C168.189 19.6589 168.318 19.8667 168.394 20.0954C168.471 20.3241 168.493 20.5675 168.46 20.8064V21.7643L166.968 29.628H173.183L174.854 20.7173C174.977 20.1314 175.037 19.5339 175.032 18.9352C175.092 18.2847 174.998 17.6293 174.758 17.0217C174.518 16.4142 174.139 15.8716 173.651 15.4377Z" fill="white"/>
<path d="M196.792 14.2129H189.53L184.696 18.7128L187.168 5.34668H180.931L176.453 29.6284H182.691L183.582 24.928L184.941 23.7919L187.257 29.6284H194.72L189.953 19.938L196.792 14.2129Z" fill="white"/>
<path d="M113.921 15.3714C112.835 14.6543 111.543 14.3175 110.245 14.4135C109.111 14.4141 107.989 14.6569 106.956 15.1256C105.922 15.5943 105.001 16.278 104.253 17.1313C103.696 15.3046 102.203 14.4135 99.7975 14.4135H99.6415C98.6314 14.4438 97.6412 14.7027 96.7456 15.1709C95.826 15.6282 94.996 16.2469 94.2951 16.9976L94.6738 14.7699H88.9041L86.1641 29.6286H92.3793L93.7605 22.0545C93.9143 21.2349 94.2746 20.4682 94.8075 19.8268C95.0337 19.5965 95.3044 19.4145 95.6031 19.292C95.9018 19.1695 96.2223 19.1089 96.5451 19.1139C96.7622 19.0815 96.9839 19.0996 97.1929 19.1669C97.4019 19.2342 97.5926 19.3488 97.75 19.5019C97.9074 19.655 98.0273 19.8424 98.1003 20.0494C98.1734 20.2565 98.1977 20.4776 98.1713 20.6956V21.9876L96.701 29.6286H102.916L104.32 22.0545C104.393 21.113 104.786 20.2248 105.434 19.5372C105.918 19.2221 106.482 19.0521 107.06 19.0471C107.527 18.9988 107.995 19.1258 108.374 19.4035C108.521 19.5648 108.633 19.7552 108.702 19.9624C108.771 20.1696 108.796 20.3891 108.775 20.6065C108.756 21.0933 108.697 21.5777 108.597 22.0545L107.193 29.6286H113.409L115.079 20.7179C115.198 19.9815 115.25 19.2359 115.235 18.4902C115.263 17.9052 115.159 17.3214 114.932 16.7817C114.705 16.242 114.359 15.7601 113.921 15.3714Z" fill="white"/>
<path d="M153.31 14.8811C151.712 14.1292 149.946 13.8068 148.186 13.9455H147.696C146.827 13.9455 145.981 13.9455 145.246 13.9455C141.124 14.3687 138.808 15.9949 138.318 18.8018H144.332C144.529 18.3891 144.848 18.0469 145.246 17.8216C145.726 17.5712 146.263 17.4485 146.805 17.4652C147.986 17.4652 148.61 17.8216 148.61 18.5122C148.61 19.2028 148.253 19.3587 147.629 19.6038C146.849 19.8222 146.052 19.9713 145.246 20.0493H144.555L142.327 20.3835L140.723 20.6953C139.745 20.9338 138.827 21.3739 138.028 21.9874C137.11 22.736 136.486 23.7856 136.268 24.9502C136.268 24.9502 136.268 25.1953 136.157 25.3957V26.0195C136.13 26.4826 136.223 26.9448 136.426 27.3621C136.628 27.7793 136.935 28.1377 137.315 28.4031C138.356 29.1418 139.603 29.5317 140.879 29.517H141.169C143.39 29.5611 145.557 28.8284 147.295 27.4452V29.0714H153.733V28.8041C153.401 28.5015 153.168 28.1054 153.065 27.668L153.243 26.6878L154.624 19.5815C154.725 18.9998 154.785 18.4117 154.802 17.8216C154.851 17.2413 154.737 16.659 154.473 16.1397C154.21 15.6205 153.807 15.1847 153.31 14.8811ZM146.805 25.173C146.496 25.5235 146.117 25.8045 145.691 25.9972L145.246 26.1754C144.95 26.265 144.642 26.3101 144.332 26.3091C143.218 26.3091 142.662 25.9304 142.662 25.173V25.0393C142.686 24.7912 142.772 24.5531 142.912 24.3469C143.052 24.1407 143.242 23.9728 143.464 23.8586L144.377 23.4799C144.66 23.3818 144.95 23.3073 145.246 23.2572H145.647C146.405 23.119 147.15 22.9178 147.874 22.6557C147.74 23.5728 147.372 24.4397 146.805 25.173Z" fill="white"/>
<path d="M129.787 13.9444C128.894 13.9243 128.005 14.06 127.159 14.3454C126.83 14.5065 126.51 14.685 126.201 14.88C125.721 15.1684 125.267 15.4962 124.842 15.8602L126.825 4.85547H120.565L116.109 29.1818H121.701L122.169 27.0877C122.48 27.8827 123.036 28.5578 123.757 29.0145C124.479 29.4713 125.327 29.686 126.178 29.6273H126.49C127.698 29.6744 128.9 29.4369 129.999 28.9338C131.098 28.4307 132.063 27.6763 132.817 26.7313C134.426 24.8023 135.288 22.3593 135.245 19.8478C135.284 19.0646 135.159 18.2819 134.879 17.5495C134.599 16.817 134.17 16.1507 133.619 15.5929C133.132 15.0637 132.54 14.6432 131.879 14.3591C131.219 14.0751 130.506 13.9337 129.787 13.9444ZM128.027 23.9467C127.617 24.6183 126.962 25.1052 126.201 25.3056C125.993 25.3177 125.785 25.3177 125.577 25.3056C124.174 25.3056 123.483 24.4368 123.483 22.7438C123.688 21.6512 124.048 20.5936 124.552 19.6027C124.736 19.3163 124.978 19.0712 125.262 18.8833C125.545 18.6954 125.865 18.5686 126.201 18.5112C126.438 18.4991 126.676 18.4991 126.914 18.5112C128.273 18.5112 128.941 19.3577 128.941 21.0062C128.921 22.0531 128.604 23.0729 128.027 23.9467Z" fill="white"/>
</svg>
